<svg width="24" height="24" viewBox="0 0 24 24" fill="none" xmlns="http://www.w3.org/2000/svg">
<g id="bat" clip-path="url(#clip0_12_5242)">
<g id="Group">
<g id="Group_2">
<path id="Vector" d="M16.5796 12.6457L6.43641 22.7888C5.93634 23.2889 5.14618 23.3744 4.56842 22.9728C3.18482 22.0039 2.0035 20.843 1.04224 19.4673C0.630274 18.8793 0.695045 18.0787 1.20284 17.5709L11.3538 7.41994C11.8436 6.93024 12.499 6.63744 13.1933 6.60126L15.5329 6.47424L17.5279 8.46919L17.4009 10.8088C17.3621 11.5005 17.0693 12.156 16.5796 12.6457Z" fill="#FABB53"/>
<path id="Vector_2" d="M17.4008 10.8088L17.5278 8.46915L16.5834 7.52478L2.69238 21.4158C3.26856 21.9819 3.894 22.5006 4.56835 22.9727C5.1461 23.3744 5.93626 23.2889 6.43634 22.7888L16.5795 12.6456C17.0692 12.1559 17.362 11.5004 17.4008 10.8088Z" fill="#F99944"/>
<path id="Vector_3" d="M22.8158 3.18122L17.5278 8.46919L13.9005 10.5264C13.6259 10.6819 13.3202 10.3761 13.4757 10.1015L15.5328 6.47425L20.8208 1.18628C21.37 0.637112 22.2638 0.634518 22.8156 1.18634C23.0903 1.46098 23.2303 1.82362 23.2277 2.18384C23.2276 2.5466 23.0903 2.9067 22.8158 3.18122Z" fill="#E9293A"/>
<path id="Vector_4" d="M23.2279 2.18384C23.2304 1.83291 23.0952 1.4811 22.8346 1.20911L13.5508 10.4929C13.6425 10.5692 13.7739 10.5982 13.9008 10.5264L17.528 8.46919L22.816 3.18122C23.0905 2.9067 23.2278 2.5466 23.2279 2.18384Z" fill="#D42032"/>
</g>
<g id="Group_3">
<path id="Vector_5" d="M5.09851 14.6334L4.74695 14.985C4.5245 15.2074 4.47125 15.5656 4.65555 15.8206C4.89067 16.1459 5.34603 16.1728 5.61762 15.9012L5.99198 15.5269C6.2387 15.2802 6.2387 14.8801 5.99198 14.6334C5.74525 14.3867 5.34523 14.3867 5.09851 14.6334Z" fill="#FFD77F"/>
<path id="Vector_6" d="M6.85008 13.7755C7.09681 14.0222 7.49683 14.0222 7.74355 13.7755L9.34137 12.1777C9.58594 11.9331 9.58844 11.5313 9.34137 11.2842C9.0943 11.0372 8.69247 11.0396 8.4479 11.2842L6.85008 12.882C6.60336 13.1288 6.60336 13.5288 6.85008 13.7755Z" fill="#FFD77F"/>
</g>
</g>
</g>
<defs>
<clipPath id="clip0_12_5242">
<rect width="24" height="24" fill="white"/>
</clipPath>
</defs>
</svg>
