<svg width="24" height="24" viewBox="0 0 24 24" fill="none" xmlns="http://www.w3.org/2000/svg">
<g id="tennis-balls 1" clip-path="url(#clip0_12_5285)">
<g id="Group">
<path id="Vector" d="M23.5424 11.9998C23.5424 13.2527 23.3582 14.4599 23.0162 15.5947C21.5485 20.4659 17.1791 23.9997 12.0158 23.9997C5.64949 23.9987 0.489258 18.6267 0.489258 11.9998C0.489258 11.3332 0.541166 10.6787 0.641927 10.0416C1.53963 4.346 6.2907 0 12.0158 0C18.3821 0 23.5424 5.37194 23.5424 11.9998Z" fill="#B1CD0A"/>
</g>
<g id="Group_2">
<path id="Vector_2" d="M15.8715 0.684545C15.8185 0.837215 15.6944 0.961386 15.5264 1.00719C15.501 1.01431 14.0964 1.40209 12.2369 2.2947C11.1438 2.81989 10.1097 3.41428 9.16316 4.0616C7.98557 4.86668 6.94131 5.75725 6.05786 6.70685C5.30469 7.51702 4.81615 8.5226 4.64516 9.6147C4.47417 10.7068 4.63193 11.8142 5.10215 12.8147C5.46448 13.5872 5.98051 14.2457 6.63597 14.7719C7.25479 15.2696 7.99269 15.635 8.77029 15.8273C9.54687 16.0207 10.3703 16.0431 11.1499 15.8935C11.9753 15.7347 12.7397 15.3948 13.4216 14.8818L16.4659 12.5928C17.3737 11.9098 18.359 11.3246 19.393 10.8523C20.4271 10.3811 21.5152 10.0208 22.6256 9.78264L23.2973 9.63811C23.3044 9.63709 23.3116 9.63506 23.3187 9.63404V9.63506L23.4683 10.6325L22.8373 10.7679C21.7971 10.9908 20.7793 11.3277 19.8114 11.7694C18.8434 12.2111 17.9223 12.7587 17.0715 13.3979L14.0272 15.6869C12.8812 16.549 11.5102 16.9998 10.1117 16.9998C9.58453 16.9998 9.05222 16.9357 8.52704 16.8054C6.61052 16.3291 5.02988 15.0304 4.1902 13.2421C3.63448 12.0584 3.44823 10.7506 3.65077 9.45796C3.85331 8.16638 4.4304 6.97759 5.32097 6.01984C6.25735 5.01222 7.36369 4.06974 8.60846 3.2209C9.5998 2.54406 10.6817 1.92321 11.8237 1.37563C12.9361 0.842304 13.8817 0.486075 14.4985 0.275391L15.8715 0.684545Z" fill="white"/>
</g>
<path id="Vector_3" opacity="0.22" d="M23 15.5698C21.5015 20.4556 17.0403 24 11.7686 24C5.2686 23.999 0 18.6109 0 11.9641C0 11.2955 0.0529978 10.6391 0.155876 10C1.17842 10.2685 6.96038 12.0774 9.56038 19.1918C12.4181 27.0115 18.9607 11.7232 23 15.5698Z" fill="#019C4F"/>
</g>
<defs>
<clipPath id="clip0_12_5285">
<rect width="24" height="24" fill="white"/>
</clipPath>
</defs>
</svg>
