<svg width="21" height="21" viewBox="0 0 21 21" fill="none" xmlns="http://www.w3.org/2000/svg">
<g id="image">
<path id="Vector" fill-rule="evenodd" clip-rule="evenodd" d="M2.55764 6.56741C2.6157 6.5092 2.68467 6.46302 2.7606 6.43152C2.83653 6.40001 2.91793 6.38379 3.00014 6.38379C3.08235 6.38379 3.16375 6.40001 3.23968 6.43152C3.31561 6.46302 3.38458 6.5092 3.44264 6.56741L10.5001 13.6262L17.5576 6.56741C17.6158 6.5093 17.6847 6.4632 17.7607 6.43175C17.8366 6.4003 17.918 6.38412 18.0001 6.38412C18.0823 6.38412 18.1637 6.4003 18.2396 6.43175C18.3155 6.4632 18.3845 6.5093 18.4426 6.56741C18.5007 6.62552 18.5468 6.6945 18.5783 6.77043C18.6097 6.84635 18.6259 6.92773 18.6259 7.00991C18.6259 7.09209 18.6097 7.17346 18.5783 7.24939C18.5468 7.32531 18.5007 7.3943 18.4426 7.45241L10.9426 14.9524C10.8846 15.0106 10.8156 15.0568 10.7397 15.0883C10.6638 15.1198 10.5823 15.136 10.5001 15.136C10.4179 15.136 10.3365 15.1198 10.2606 15.0883C10.1847 15.0568 10.1157 15.0106 10.0576 14.9524L2.55764 7.45241C2.49944 7.39435 2.45326 7.32538 2.42175 7.24945C2.39024 7.17352 2.37402 7.09212 2.37402 7.00991C2.37402 6.9277 2.39024 6.8463 2.42175 6.77036C2.45326 6.69443 2.49944 6.62546 2.55764 6.56741Z" fill="#192335"/>
</g>
</svg>
