<svg width="16" height="16" viewBox="0 0 16 16" fill="none" xmlns="http://www.w3.org/2000/svg">
<path d="M13.5 12.6057V13.5625C13.5 14.0803 13.0803 14.5 12.5625 14.5H1.40625C0.888469 14.5 0.46875 14.0803 0.46875 13.5625V4.4375C0.46875 3.91972 0.888469 3.5 1.40625 3.5H2.36103" stroke="#192335" stroke-width="0.9375" stroke-miterlimit="10" stroke-linecap="round" stroke-linejoin="round"/>
<path d="M14.5938 12.5H3.4375C2.91972 12.5 2.5 12.0803 2.5 11.5625V2.4375C2.5 1.91972 2.91972 1.5 3.4375 1.5H14.5938C15.1115 1.5 15.5312 1.91972 15.5312 2.4375V11.5625C15.5312 12.0803 15.1115 12.5 14.5938 12.5Z" stroke="#192335" stroke-width="0.9375" stroke-miterlimit="10" stroke-linecap="round" stroke-linejoin="round"/>
<path d="M2.5 9.75L6 7L8 8.75L12 5.25L15.5312 7.75" stroke="#192335" stroke-width="0.9375" stroke-miterlimit="10" stroke-linecap="round" stroke-linejoin="round"/>
<path d="M8 5.5C8.55228 5.5 9 5.05228 9 4.5C9 3.94772 8.55228 3.5 8 3.5C7.44772 3.5 7 3.94772 7 4.5C7 5.05228 7.44772 5.5 8 5.5Z" stroke="#192335" stroke-width="0.9375" stroke-miterlimit="10" stroke-linecap="round" stroke-linejoin="round"/>
</svg>
