<svg width="12" height="14" viewBox="0 0 12 14" fill="none" xmlns="http://www.w3.org/2000/svg">
<g id="Location">
<path id="Location_2" fill-rule="evenodd" clip-rule="evenodd" d="M6.01887 0.333346C2.94619 0.322908 0.436405 2.76755 0.336093 5.82755L0.333008 6.01748C0.38408 7.51736 0.89439 8.94711 1.7932 10.1251L2.00429 10.4005C2.86221 11.4914 3.88175 12.4489 5.02652 13.238L5.30215 13.4236L5.34237 13.4552C5.73474 13.7371 6.26451 13.7371 6.65688 13.4552L6.69036 13.4277C7.59871 12.8386 8.43634 12.1464 9.18665 11.3648C10.7121 9.75011 11.6315 7.94081 11.6662 6.1033L11.6663 6.03508C11.6767 2.95459 9.23957 0.437093 6.18898 0.33644L6.01887 0.333346ZM6.01545 1.34494C8.53446 1.35355 10.5797 3.36624 10.6556 5.8727L10.6578 6.0937C10.6286 7.63425 9.82197 9.22159 8.45741 10.6661C7.76163 11.3908 6.9815 12.035 6.13538 12.5829L6.07899 12.6253C6.03342 12.6649 5.96583 12.6649 5.92026 12.6253L5.86545 12.584C4.60499 11.761 3.49872 10.722 2.59725 9.51444C1.87113 8.56276 1.44084 7.42489 1.35424 6.23789L1.34151 5.99987C1.35007 3.47477 3.35656 1.42328 5.85531 1.34711L6.01545 1.34494ZM5.99963 3.93417C4.80736 3.93417 3.84084 4.90368 3.84084 6.09962C3.84084 7.29556 4.80736 8.26506 5.99963 8.26506C7.19189 8.26506 8.15841 7.29556 8.15841 6.09962C8.15841 4.90368 7.19189 3.93417 5.99963 3.93417ZM5.99963 4.94579C6.63491 4.94579 7.1499 5.46238 7.1499 6.09962C7.1499 6.73686 6.63491 7.25345 5.99963 7.25345C5.36435 7.25345 4.84935 6.73686 4.84935 6.09962C4.84935 5.46238 5.36435 4.94579 5.99963 4.94579Z" fill="#6B7385"/>
</g>
</svg>
