<svg width="14" height="12" viewBox="0 0 14 12" fill="none" xmlns="http://www.w3.org/2000/svg">
<g id="Message">
<path id="Message_2" fill-rule="evenodd" clip-rule="evenodd" d="M10.0165 3.16688e-05L3.97046 0C1.85744 0 0.333008 1.70767 0.333008 3.90598V8.09402C0.333008 10.2923 1.85744 12 3.97046 12H10.0109C11.0258 11.9886 11.9865 11.5614 12.6747 10.8177C13.363 10.074 13.7187 9.07886 13.6592 8.06396L13.6601 3.90598C13.7187 2.92114 13.363 1.92597 12.6747 1.1823C11.9865 0.438624 11.0258 0.0113672 10.0165 3.16688e-05ZM3.97046 1.01895L10.0053 1.01892C10.7379 1.02715 11.4352 1.33728 11.9347 1.87708C12.4343 2.41689 12.6926 3.13925 12.6493 3.87592L12.6485 8.09402C12.6926 8.86075 12.4343 9.58311 11.9347 10.1229C11.4352 10.6627 10.7379 10.9729 10.0053 10.9811L3.97046 10.981C2.44153 10.981 1.34463 9.7523 1.34463 8.09402V3.90598C1.34463 2.2477 2.44153 1.01895 3.97046 1.01895ZM11.0157 3.75891C10.8411 3.53924 10.5228 3.5037 10.3047 3.67953L7.57187 5.88283L7.49354 5.93788C7.17132 6.1397 6.74819 6.12106 6.43955 5.87875L3.68672 3.67821L3.62476 3.63574C3.41125 3.51152 3.13395 3.56021 2.97608 3.76057C2.80242 3.98097 2.83903 4.30144 3.05785 4.47636L5.81417 6.67965L5.9217 6.75836C6.61507 7.23059 7.53391 7.20449 8.1989 6.68241L10.9369 4.47503L10.9918 4.42367C11.1597 4.24174 11.1744 3.95861 11.0157 3.75891Z" fill="#6B7385"/>
</g>
</svg>
