<svg width="25" height="24" viewBox="0 0 25 24" fill="none" xmlns="http://www.w3.org/2000/svg">
<g id="tennis-balls 1" clip-path="url(#clip0_12_5378)">
<g id="Group">
<path id="Vector" d="M24.5023 11.9998C24.5023 13.2527 24.3181 14.4599 23.9761 15.5947C22.5085 20.4659 18.1391 23.9997 12.9758 23.9997C6.60945 23.9987 1.44922 18.6267 1.44922 11.9998C1.44922 11.3332 1.50113 10.6787 1.60189 10.0416C2.49959 4.346 7.25067 0 12.9758 0C19.3421 0 24.5023 5.37194 24.5023 11.9998Z" fill="#B1CD0A"/>
</g>
<g id="Group_2">
<path id="Vector_2" d="M16.8314 0.684545C16.7785 0.837215 16.6543 0.961386 16.4864 1.00719C16.4609 1.01431 15.0564 1.40209 13.1969 2.2947C12.1038 2.81989 11.0697 3.41428 10.1231 4.0616C8.94553 4.86668 7.90127 5.75725 7.01782 6.70685C6.26465 7.51702 5.77611 8.5226 5.60512 9.6147C5.43413 10.7068 5.59189 11.8142 6.06211 12.8147C6.42444 13.5872 6.94047 14.2457 7.59593 14.7719C8.21475 15.2696 8.95265 15.635 9.73025 15.8273C10.5068 16.0207 11.3302 16.0431 12.1099 15.8935C12.9353 15.7347 13.6997 15.3948 14.3816 14.8818L17.4258 12.5928C18.3337 11.9098 19.3189 11.3246 20.353 10.8523C21.3871 10.3811 22.4751 10.0208 23.5855 9.78264L24.2573 9.63811C24.2644 9.63709 24.2715 9.63506 24.2787 9.63404V9.63506L24.4283 10.6325L23.7972 10.7679C22.757 10.9908 21.7392 11.3277 20.7713 11.7694C19.8034 12.2111 18.8823 12.7587 18.0314 13.3979L14.9872 15.6869C13.8411 16.549 12.4702 16.9998 11.0717 16.9998C10.5445 16.9998 10.0122 16.9357 9.487 16.8054C7.57049 16.3291 5.98985 15.0304 5.15016 13.2421C4.59444 12.0584 4.40819 10.7506 4.61073 9.45796C4.81327 8.16638 5.39036 6.97759 6.28094 6.01984C7.21731 5.01222 8.32366 4.06974 9.56842 3.2209C10.5598 2.54406 11.6417 1.92321 12.7836 1.37563C13.8961 0.842304 14.8416 0.486075 15.4584 0.275391L16.8314 0.684545Z" fill="white"/>
</g>
<path id="Vector_3" opacity="0.22" d="M23.96 15.5698C22.4615 20.4556 18.0003 24 12.7286 24C6.22856 23.999 0.959961 18.6109 0.959961 11.9641C0.959961 11.2955 1.01296 10.6391 1.11584 10C2.13838 10.2685 7.92034 12.0774 10.5203 19.1918C13.3781 27.0115 19.9207 11.7232 23.96 15.5698Z" fill="#019C4F"/>
</g>
<defs>
<clipPath id="clip0_12_5378">
<rect width="24" height="24" fill="white" transform="translate(0.959961)"/>
</clipPath>
</defs>
</svg>
