<svg width="24" height="24" viewBox="0 0 24 24" fill="none" xmlns="http://www.w3.org/2000/svg">
<g id="Group">
<g id="Group_2">
<path id="Vector" d="M16.5796 12.6455L6.43641 22.7887C5.93634 23.2888 5.14618 23.3743 4.56842 22.9727C3.18482 22.0037 2.0035 20.8429 1.04224 19.4672C0.630274 18.8792 0.695045 18.0786 1.20284 17.5708L11.3538 7.41982C11.8436 6.93011 12.499 6.63731 13.1933 6.60113L15.5329 6.47412L17.5279 8.46906L17.4009 10.8087C17.3621 11.5003 17.0693 12.1558 16.5796 12.6455Z" fill="#FABB53"/>
<path id="Vector_2" d="M17.4008 10.8086L17.5278 8.46903L16.5834 7.52466L2.69238 21.4157C3.26856 21.9818 3.894 22.5004 4.56835 22.9726C5.1461 23.3743 5.93626 23.2888 6.43634 22.7887L16.5795 12.6455C17.0692 12.1558 17.362 11.5003 17.4008 10.8086Z" fill="#F99944"/>
<path id="Vector_3" d="M22.8158 3.1811L17.5278 8.46907L13.9005 10.5263C13.6259 10.6817 13.3202 10.376 13.4757 10.1014L15.5328 6.47413L20.8208 1.18615C21.37 0.636989 22.2638 0.634396 22.8156 1.18622C23.0903 1.46086 23.2303 1.82349 23.2277 2.18372C23.2276 2.54648 23.0903 2.90658 22.8158 3.1811Z" fill="#E9293A"/>
<path id="Vector_4" d="M23.2279 2.18372C23.2304 1.83279 23.0952 1.48097 22.8346 1.20898L13.5508 10.4928C13.6425 10.5691 13.7739 10.598 13.9008 10.5262L17.528 8.46906L22.816 3.18109C23.0905 2.90657 23.2278 2.54647 23.2279 2.18372Z" fill="#D42032"/>
</g>
<g id="Group_3">
<path id="Vector_5" d="M5.09851 14.6333L4.74695 14.9848C4.5245 15.2073 4.47125 15.5655 4.65555 15.8205C4.89067 16.1457 5.34603 16.1727 5.61762 15.9011L5.99198 15.5268C6.2387 15.28 6.2387 14.88 5.99198 14.6333C5.74525 14.3866 5.34523 14.3866 5.09851 14.6333Z" fill="#FFD77F"/>
<path id="Vector_6" d="M6.85008 13.7754C7.09681 14.0221 7.49683 14.0221 7.74355 13.7754L9.34137 12.1776C9.58594 11.933 9.58844 11.5312 9.34137 11.2841C9.0943 11.037 8.69247 11.0395 8.4479 11.2841L6.85008 12.8819C6.60336 13.1286 6.60336 13.5287 6.85008 13.7754Z" fill="#FFD77F"/>
</g>
</g>
</svg>
