<svg width="24" height="24" viewBox="0 0 24 24" fill="none" xmlns="http://www.w3.org/2000/svg">
<g clip-path="url(#clip0_42_344)">
<path d="M23.9994 11.9995C23.9994 18.6268 18.6269 23.9993 11.9996 23.9993C5.3725 23.9993 0 18.6268 0 11.9995C0 5.37237 5.3725 -0.00012207 11.9996 -0.00012207C18.6269 -0.00012207 23.9994 5.37237 23.9994 11.9995Z" fill="#CFD8DC"/>
<path d="M2.46516 15.716C2.34285 15.716 2.22365 15.6541 2.15535 15.5421C2.05135 15.3712 2.10573 15.1484 2.27657 15.0444L7.78987 11.6903C7.96089 11.5863 8.18355 11.6406 8.28755 11.8115C8.39155 11.9823 8.33736 12.2052 8.16633 12.309L2.65303 15.6633C2.59425 15.699 2.52925 15.716 2.46516 15.716Z" fill="#90A4AE"/>
<path d="M11.9966 22.1641C11.9962 22.1641 11.996 22.1641 11.9957 22.1641C11.7957 22.1638 11.649 22.0012 11.6494 21.8012V14.7178C11.6498 14.518 11.8118 14.3563 12.0116 14.3563H12.0123C12.2123 14.3567 12.3741 14.5193 12.3738 14.7192V21.8027C12.3732 22.0024 12.1962 22.1641 11.9966 22.1641Z" fill="#90A4AE"/>
<path d="M9.7688 7.90918C9.68036 7.90918 9.59192 7.87714 9.52216 7.81214L5.33399 3.91126C5.18769 3.77485 5.17963 3.54578 5.31586 3.3993C5.45228 3.253 5.68134 3.24494 5.82783 3.38117L10.0158 7.28205C10.1621 7.41846 10.1704 7.64753 10.0339 7.79401C9.96253 7.87055 9.86585 7.90918 9.7688 7.90918Z" fill="#90A4AE"/>
<path d="M21.5588 15.7161C21.4947 15.7161 21.4297 15.699 21.371 15.6633L15.8577 12.309C15.6866 12.205 15.6324 11.9824 15.7364 11.8113C15.8403 11.6405 16.0631 11.5863 16.2339 11.6903L21.7474 15.0444C21.9183 15.1484 21.9725 15.3713 21.8686 15.5421C21.8003 15.6542 21.6811 15.7161 21.5588 15.7161Z" fill="#90A4AE"/>
<path d="M14.2549 7.90918C14.1579 7.90918 14.0612 7.87055 13.9898 7.79401C13.8533 7.64753 13.8616 7.41846 14.0079 7.28205L18.1961 3.38117C18.3424 3.24494 18.5714 3.253 18.7078 3.3993C18.8443 3.54578 18.836 3.77485 18.6897 3.91126L14.5015 7.81214C14.4318 7.87714 14.3432 7.90918 14.2549 7.90918Z" fill="#90A4AE"/>
<path d="M16.3696 0.820801C19.7891 2.93512 22.0679 6.71808 22.0679 11.0339C22.0679 17.661 16.6954 23.0335 10.0681 23.0335C8.52631 23.0335 7.05231 22.7424 5.69824 22.2126C7.52966 23.3451 9.68811 23.9994 11.9996 23.9994C18.6269 23.9994 23.9994 18.6269 23.9994 11.9996C23.9994 6.91437 20.8359 2.56818 16.3696 0.820801Z" fill="#90A4AE"/>
<path d="M9.58453 0.243042C6.15698 0.94342 3.26154 3.10498 1.57715 6.04877L6.62976 4.76794C6.70831 4.74817 6.77606 4.69891 6.81927 4.63043L9.58453 0.243042Z" fill="#546E7A"/>
<path d="M0.0807495 10.6003C0.0274658 11.0594 0 11.5263 0 11.9995C0 15.1252 1.19513 17.9718 3.15326 20.1072L3.50079 14.8442C3.5061 14.7634 3.4801 14.6836 3.42828 14.6215L0.0807495 10.6003Z" fill="#546E7A"/>
<path d="M22.4224 6.04877C20.738 3.10498 17.8426 0.94342 14.415 0.243042L17.1803 4.63043C17.2235 4.69891 17.2913 4.74817 17.3696 4.76813L22.4224 6.04877Z" fill="#546E7A"/>
<path d="M20.7866 5.63428L22.4213 6.04864C21.0592 3.66809 18.9171 1.81873 16.3721 0.822632C18.2515 1.98517 19.7857 3.65198 20.7866 5.63428Z" fill="#37474F"/>
<path d="M23.9188 10.6003L20.5711 14.6215C20.5192 14.6838 20.4934 14.7634 20.4987 14.8442L20.8463 20.1072C22.8044 17.9718 23.9995 15.1252 23.9995 11.9996C23.9995 11.5263 23.9721 11.0594 23.9188 10.6003Z" fill="#546E7A"/>
<path d="M23.9185 10.6003L21.9028 13.0215C21.6815 14.3489 21.2431 15.6028 20.624 16.7448L20.8459 20.1064C23.2234 17.5139 24.3204 14.0535 23.9185 10.6003Z" fill="#37474F"/>
<path d="M6.95703 22.8914C8.49017 23.6024 10.1987 23.9993 11.9999 23.9993C13.8013 23.9993 15.5099 23.6024 17.043 22.8914L12.1404 20.4553C12.0519 20.4114 11.9481 20.4114 11.8597 20.4553L6.95703 22.8914Z" fill="#546E7A"/>
<path d="M17.0422 22.8907L15.1044 21.928C12.6266 23.0751 9.86755 23.3157 7.31232 22.7148L6.95801 22.8909C10.1442 24.3686 13.8536 24.3688 17.0422 22.8907Z" fill="#37474F"/>
<path d="M14.9899 6.64111H9.02323C8.88755 6.64111 8.76725 6.72772 8.72404 6.85626L6.81919 12.5287C6.77506 12.66 6.82176 12.8048 6.93436 12.8856L10.2535 15.2665L11.8225 16.392C11.9331 16.4713 12.082 16.4709 12.1921 16.3909L13.402 15.5118L17.0185 12.8845C17.1291 12.8041 17.1753 12.6616 17.1332 12.5316L15.29 6.85919C15.2477 6.72919 15.1265 6.64111 14.9899 6.64111Z" fill="#546E7A"/>
<path d="M14.9902 6.64111H13.6017L14.4719 9.31903C14.9494 10.7888 14.4263 12.3989 13.176 13.3072L11.4709 14.5461L10.3672 15.348L11.8229 16.3922C11.9335 16.4715 12.0823 16.4711 12.1924 16.3911L13.4023 15.512L17.0187 12.8845C17.1295 12.8041 17.1756 12.6616 17.1335 12.5316L15.2903 6.85937C15.248 6.72919 15.1268 6.64111 14.9902 6.64111Z" fill="#37474F"/>
</g>
<defs>
<clipPath id="clip0_42_344">
<rect width="24" height="24" fill="white"/>
</clipPath>
</defs>
</svg>
