<svg width="25" height="24" viewBox="0 0 25 24" fill="none" xmlns="http://www.w3.org/2000/svg">
<g id="pipes 1" clip-path="url(#clip0_12_5359)">
<g id="Page-1">
<g id="029---Filters">
<path id="Shape" d="M3.20249 3.72412V5.37929H1.13352C0.904988 5.37929 0.719727 5.19403 0.719727 4.9655V4.13791C0.719727 3.90938 0.904988 3.72412 1.13352 3.72412H3.20249Z" fill="#95A5A5"/>
<path id="Rectangle-path" d="M10.2373 3.72412H15.2028V5.37929H10.2373V3.72412Z" fill="#95A5A5"/>
<path id="Shape_2" d="M10.6504 5.37927V21.1034C10.6504 22.0175 9.90938 22.7586 8.99525 22.7586H4.85732C3.94319 22.7586 3.20215 22.0175 3.20215 21.1034V5.37927H10.6504Z" fill="#84B5CB"/>
<path id="Shape_3" d="M22.2373 5.37927V21.1034C22.2373 22.0175 21.4963 22.7586 20.5822 22.7586H16.4442C15.5301 22.7586 14.7891 22.0175 14.7891 21.1034V5.37927H22.2373Z" fill="#84B5CB"/>
<g id="Group">
<path id="Shape_4" d="M6.09907 6.20691V19.8621C6.09907 20.0906 5.91381 20.2759 5.68528 20.2759C5.45675 20.2759 5.27148 20.0906 5.27148 19.8621V6.20691H6.09907Z" fill="#2980BA"/>
<path id="Shape_5" d="M8.58149 6.20691V19.8621C8.58149 20.0906 8.39623 20.2759 8.1677 20.2759C7.93917 20.2759 7.75391 20.0906 7.75391 19.8621V6.20691H8.58149Z" fill="#2980BA"/>
<path id="Shape_6" d="M17.685 6.20691V19.8621C17.685 20.0906 17.4997 20.2759 17.2712 20.2759C17.0427 20.2759 16.8574 20.0906 16.8574 19.8621V6.20691H17.685Z" fill="#2980BA"/>
<path id="Shape_7" d="M20.1684 6.20691V19.8621C20.1684 20.0906 19.9831 20.2759 19.7546 20.2759C19.5261 20.2759 19.3408 20.0906 19.3408 19.8621V6.20691H20.1684Z" fill="#2980BA"/>
</g>
<path id="Rectangle-path_2" d="M11.0647 2.89648H2.78879C2.56026 2.89648 2.375 3.08175 2.375 3.31028V5.79304C2.375 6.02157 2.56026 6.20683 2.78879 6.20683H11.0647C11.2932 6.20683 11.4784 6.02157 11.4784 5.79304V3.31028C11.4784 3.08175 11.2932 2.89648 11.0647 2.89648Z" fill="#3B97D3"/>
<path id="Shape_8" d="M24.7198 4.13791V4.9655C24.7198 5.19403 24.5345 5.37929 24.306 5.37929H21.8232V3.72412H24.306C24.5345 3.72412 24.7198 3.90938 24.7198 4.13791Z" fill="#95A5A5"/>
<path id="Rectangle-path_3" d="M22.6506 2.89648H14.3747C14.1462 2.89648 13.9609 3.08175 13.9609 3.31028V5.79304C13.9609 6.02157 14.1462 6.20683 14.3747 6.20683H22.6506C22.8791 6.20683 23.0644 6.02157 23.0644 5.79304V3.31028C23.0644 3.08175 22.8791 2.89648 22.6506 2.89648Z" fill="#3B97D3"/>
<path id="Shape_9" d="M11.0649 2.89651H2.78906L3.04561 1.86617C3.13744 1.49792 3.46885 1.23997 3.84837 1.24134H10.0056C10.3851 1.23997 10.7165 1.49792 10.8084 1.86617L11.0649 2.89651Z" fill="#2980BA"/>
<path id="Shape_10" d="M22.6509 2.89651H14.375L14.6316 1.86617C14.7234 1.49792 15.0548 1.23997 15.4343 1.24134H21.5916C21.9711 1.23997 22.3025 1.49792 22.3943 1.86617L22.6509 2.89651Z" fill="#2980BA"/>
</g>
</g>
</g>
<defs>
<clipPath id="clip0_12_5359">
<rect width="24" height="24" fill="white" transform="translate(0.719727)"/>
</clipPath>
</defs>
</svg>
