<svg width="25" height="24" viewBox="0 0 25 24" fill="none" xmlns="http://www.w3.org/2000/svg">
<g id="plastic-bottle 1" clip-path="url(#clip0_12_5343)">
<path id="Vector" d="M8.11719 7.46495C8.12445 6.52438 8.38664 5.60338 8.87584 4.80001C9.25351 4.15941 9.73849 3.58849 10.3096 3.11221C10.511 2.94592 10.6732 2.73717 10.7845 2.5009C10.8958 2.26462 10.9535 2.00667 10.9535 1.74548H14.0081C14.0081 2.00667 14.0658 2.26462 14.1771 2.5009C14.2884 2.73717 14.4506 2.94592 14.652 3.11221C15.2231 3.58849 15.7081 4.15941 16.0857 4.80001C16.5749 5.60338 16.8371 6.52438 16.8444 7.46495V16.8374C16.8444 17.2325 16.6874 17.6114 16.408 17.8908C16.6874 18.1702 16.8444 18.5492 16.8444 18.9443V22.909C16.8444 23.5114 16.1932 23.9999 15.3899 23.9999C15.1483 24.0095 14.9077 23.9635 14.6866 23.8655C14.4656 23.7675 14.27 23.62 14.115 23.4345C14.0948 23.4055 14.068 23.3818 14.0367 23.3655C14.0054 23.3491 13.9706 23.3406 13.9353 23.3406C13.9 23.3406 13.8652 23.3491 13.8339 23.3655C13.8027 23.3818 13.7758 23.4055 13.7557 23.4345C13.5944 23.6125 13.3977 23.7548 13.1781 23.8522C12.9585 23.9496 12.721 23.9999 12.4808 23.9999C12.2406 23.9999 12.0031 23.9496 11.7835 23.8522C11.5639 23.7548 11.3672 23.6125 11.2059 23.4345C11.1858 23.4055 11.1589 23.3818 11.1276 23.3655C11.0964 23.3491 11.0616 23.3406 11.0263 23.3406C10.991 23.3406 10.9562 23.3491 10.9249 23.3655C10.8936 23.3818 10.8668 23.4055 10.8466 23.4345C10.6916 23.62 10.496 23.7675 10.2749 23.8655C10.0539 23.9635 9.81331 24.0095 9.57171 23.9999C8.76841 23.9999 8.11719 23.5114 8.11719 22.909V18.9443C8.11719 18.5492 8.27415 18.1702 8.55355 17.8908C8.27415 17.6114 8.11719 17.2325 8.11719 16.8374V7.46495Z" fill="#A3DFEE"/>
<path id="Vector_2" d="M15.9716 22.909V18.9443C15.9766 18.5639 15.8536 18.1929 15.6225 17.8908C15.8536 17.5887 15.9766 17.2177 15.9716 16.8374V7.46495C15.97 6.54255 15.7626 5.63212 15.3646 4.80001C15.0759 4.17917 14.6886 3.60919 14.2177 3.11221C13.8775 2.73925 13.6932 2.25017 13.7025 1.74548H14.0079C14.0079 2.00667 14.0657 2.26462 14.177 2.5009C14.2883 2.73717 14.4505 2.94592 14.6519 3.11221C15.223 3.58849 15.708 4.15941 16.0856 4.80001C16.5748 5.60338 16.837 6.52438 16.8443 7.46495V16.8374C16.8443 17.2325 16.6873 17.6114 16.4079 17.8908C16.6873 18.1702 16.8443 18.5492 16.8443 18.9443V22.909C16.8443 23.5114 16.1931 23.9999 15.3898 23.9999C15.2815 23.9998 15.1735 23.9906 15.0669 23.9724C15.3167 23.9256 15.5428 23.7945 15.7075 23.6009C15.8722 23.4073 15.9654 23.163 15.9716 22.909Z" fill="#88CEDC"/>
<path id="Vector_3" d="M14.8803 22.909V18.9443C14.8873 18.5788 14.805 18.2172 14.6403 17.8908C14.805 17.5645 14.8873 17.2028 14.8803 16.8374V7.46495C14.8821 6.56023 14.7412 5.66088 14.463 4.80001C14.2766 4.20476 14.0114 3.63712 13.6745 3.11221C13.4298 2.6992 13.307 2.22535 13.3203 1.74548H13.7021C13.6928 2.25017 13.8772 2.73925 14.2173 3.11221C14.6882 3.60919 15.0756 4.17917 15.3643 4.80001C15.7623 5.63212 15.9696 6.54255 15.9712 7.46495V16.8374C15.9762 17.2177 15.8533 17.5887 15.6221 17.8908C15.8533 18.1929 15.9762 18.5639 15.9712 18.9443V22.909C15.9651 23.163 15.8719 23.4073 15.7072 23.6009C15.5425 23.7945 15.3163 23.9256 15.0665 23.9724C14.8844 23.9422 14.7083 23.8829 14.5451 23.7966C14.7695 23.5565 14.89 23.2375 14.8803 22.909Z" fill="#94DAEB"/>
<path id="Vector_4" d="M8.9894 7.46495C8.99099 6.54255 9.19834 5.63212 9.59634 4.80001C9.88503 4.17917 10.2724 3.60919 10.7433 3.11221C11.0835 2.73925 11.2678 2.25017 11.2585 1.74548H11.6403C11.6536 2.22535 11.5308 2.6992 11.2861 3.11221C10.9492 3.63712 10.684 4.20476 10.4976 4.80001C10.2194 5.66088 10.0785 6.56023 10.0803 7.46495V16.8374C10.0733 17.2028 10.1557 17.5645 10.3203 17.8908C10.1557 18.2172 10.0733 18.5788 10.0803 18.9443V22.909C10.0706 23.2375 10.1911 23.5565 10.4155 23.7966C10.2523 23.8829 10.0762 23.9422 9.89411 23.9724C9.64429 23.9256 9.41811 23.7945 9.25343 23.6009C9.08874 23.4073 8.99553 23.163 8.9894 22.909V18.9443C8.9844 18.5639 9.10734 18.1929 9.33849 17.8908C9.10734 17.5887 8.9844 17.2177 8.9894 16.8374V7.46495Z" fill="#BDE8F2"/>
<path id="Vector_5" d="M8.11719 7.41809H16.8444V16.1453H8.11719V7.41809Z" fill="#4E88E8"/>
<path id="Vector_6" d="M15.9714 7.46487C15.9714 7.4492 15.9708 7.43371 15.9707 7.41809H16.8434C16.8434 7.43371 16.8443 7.4492 16.8443 7.46487V16.1453H15.9714V7.46487Z" fill="#4173DA"/>
<path id="Vector_7" d="M15.9706 7.41809C15.9706 7.43371 15.9713 7.4492 15.9713 7.46487V16.1453H14.8804V7.46487C14.8804 7.4492 14.88 7.43371 14.8799 7.41809H15.9706Z" fill="#477DE0"/>
<path id="Vector_8" d="M10.0802 7.46487V16.1453H8.98926V7.46487C8.98926 7.4492 8.98983 7.43371 8.98996 7.41809H10.0809C10.0806 7.43371 10.0802 7.4492 10.0802 7.46487Z" fill="#6799EB"/>
<path id="Vector_9" d="M10.9535 1.74544H14.0081C14.0659 1.74544 14.1214 1.72246 14.1623 1.68154C14.2032 1.64062 14.2262 1.58513 14.2262 1.52726V0.43636C14.2262 0.32063 14.1803 0.209641 14.0984 0.127807C14.0166 0.0459736 13.9056 0 13.7899 0H11.1717C11.056 0 10.945 0.0459736 10.8632 0.127807C10.7813 0.209641 10.7354 0.32063 10.7354 0.43636V1.52726C10.7354 1.58513 10.7583 1.64062 10.7993 1.68154C10.8402 1.72246 10.8957 1.74544 10.9535 1.74544Z" fill="#4E88E8"/>
<path id="Vector_10" d="M13.4121 0H13.79C13.9057 0 14.0167 0.0459736 14.0986 0.127807C14.1804 0.209641 14.2264 0.32063 14.2264 0.43636V1.52726C14.2264 1.58513 14.2034 1.64062 14.1625 1.68154C14.1215 1.72246 14.066 1.74544 14.0082 1.74544H13.79V0.377888C13.79 0.277666 13.7502 0.181549 13.6793 0.110681C13.6084 0.0398131 13.5123 0 13.4121 0Z" fill="#4173DA"/>
<path id="Vector_11" d="M13.0449 0H13.4119C13.5122 0 13.6083 0.0398131 13.6792 0.110681C13.75 0.181549 13.7898 0.277666 13.7898 0.377888V1.74544H13.3535V0.30855C13.3535 0.226718 13.321 0.148237 13.2631 0.0903723C13.2052 0.0325079 13.1268 0 13.0449 0Z" fill="#477DE0"/>
<path id="Vector_12" d="M11.5488 0H11.9158C11.834 0 11.7555 0.0325079 11.6976 0.0903723C11.6398 0.148237 11.6073 0.226718 11.6073 0.30855V1.74544H11.1709V0.377888C11.1709 0.277666 11.2107 0.181549 11.2816 0.110681C11.3524 0.0398131 11.4486 0 11.5488 0Z" fill="#6799EB"/>
<path id="Vector_13" d="M14.1605 2.09436H10.8005C10.7041 2.09436 10.626 2.17251 10.626 2.2689C10.626 2.3653 10.7041 2.44345 10.8005 2.44345H14.1605C14.2569 2.44345 14.335 2.3653 14.335 2.2689C14.335 2.17251 14.2569 2.09436 14.1605 2.09436Z" fill="#CAECF4"/>
</g>
<defs>
<clipPath id="clip0_12_5343">
<rect width="24" height="24" fill="white" transform="translate(0.480469)"/>
</clipPath>
</defs>
</svg>
