<svg width="24" height="24" viewBox="0 0 24 24" fill="none" xmlns="http://www.w3.org/2000/svg">
<g id="seats 2" clip-path="url(#clip0_12_5399)">
<path id="Vector" d="M2.24176 12.225H1.09473V15.0422H2.24176V12.225Z" fill="#45748C"/>
<path id="Vector_2" d="M5.41815 4.19373H2.5839C1.65788 4.19373 0.907227 4.94438 0.907227 5.8704V11.8844H7.09487V5.8704C7.09482 4.94443 6.34412 4.19373 5.41815 4.19373Z" fill="#FF4F6D"/>
<g id="Group">
<path id="Vector_3" d="M5.41791 4.19373H3.29297C4.21898 4.19373 4.96964 4.94438 4.96964 5.8704V11.8844H7.09458V5.8704C7.09462 4.94443 6.34392 4.19373 5.41791 4.19373Z" fill="#F93A5A"/>
<path id="Vector_4" d="M7.66205 12.9265H0.339188C0.151875 12.9265 0 12.7746 0 12.5873V11.6082C0 11.4209 0.151875 11.269 0.339188 11.269H7.66205C7.84936 11.269 8.00123 11.4209 8.00123 11.6082V12.5873C8.00123 12.7746 7.84936 12.9265 7.66205 12.9265Z" fill="#F93A5A"/>
</g>
<path id="Vector_5" d="M13.4162 4.19373H10.5819C9.65593 4.19373 8.90527 4.94438 8.90527 5.8704V11.8844H15.0929V5.8704C15.0929 4.94443 14.3422 4.19373 13.4162 4.19373Z" fill="#FF4F6D"/>
<g id="Group_2">
<path id="Vector_6" d="M13.4154 4.19373H11.2783C12.2043 4.19373 12.955 4.94438 12.955 5.8704V11.8844H15.092V5.8704C15.092 4.94443 14.3414 4.19373 13.4154 4.19373Z" fill="#F93A5A"/>
<path id="Vector_7" d="M15.6601 12.9265H8.33723C8.14992 12.9265 7.99805 12.7746 7.99805 12.5873V11.6082C7.99805 11.4209 8.14992 11.269 8.33723 11.269H15.6601C15.8474 11.269 15.9993 11.4209 15.9993 11.6082V12.5873C15.9993 12.7746 15.8475 12.9265 15.6601 12.9265Z" fill="#F93A5A"/>
</g>
<path id="Vector_8" d="M22.8931 12.225H21.7461V15.0422H22.8931V12.225Z" fill="#45748C"/>
<path id="Vector_9" d="M21.4162 4.19373H18.5819C17.6559 4.19373 16.9053 4.94438 16.9053 5.8704V11.8844H23.0929V5.8704C23.0929 4.94443 22.3422 4.19373 21.4162 4.19373Z" fill="#FF4F6D"/>
<g id="Group_3">
<path id="Vector_10" d="M21.4169 4.19373H19.292C20.218 4.19373 20.9687 4.94438 20.9687 5.8704V11.8844H23.0936V5.8704C23.0936 4.94443 22.3429 4.19373 21.4169 4.19373Z" fill="#F93A5A"/>
<path id="Vector_11" d="M23.6611 12.9265H16.3382C16.1509 12.9265 15.999 12.7746 15.999 12.5873V11.6082C15.999 11.4209 16.1509 11.269 16.3382 11.269H23.6611C23.8484 11.269 24.0003 11.4209 24.0003 11.6082V12.5873C24.0003 12.7746 23.8484 12.9265 23.6611 12.9265Z" fill="#F93A5A"/>
</g>
<path id="Vector_12" d="M23.661 11.269H21.8672V12.9265H23.661C23.8483 12.9265 24.0002 12.7746 24.0002 12.5873V11.6082C24.0002 11.4209 23.8483 11.269 23.661 11.269Z" fill="#D63054"/>
<g id="Group_4">
<path id="Vector_13" d="M6.2398 16.6271H5.09277V19.4443H6.2398V16.6271Z" fill="#45748C"/>
<path id="Vector_14" d="M10.8921 16.6271H9.74512V19.4443H10.8921V16.6271Z" fill="#45748C"/>
</g>
<path id="Vector_15" d="M9.4162 8.5957H6.58195C5.65593 8.5957 4.90527 9.34636 4.90527 10.2724V16.2864H11.0929V10.2724C11.0929 9.34636 10.3422 8.5957 9.4162 8.5957Z" fill="#FF4F6D"/>
<g id="Group_5">
<path id="Vector_16" d="M9.41595 8.5957H7.29102C8.21703 8.5957 8.96769 9.34636 8.96769 10.2724V16.2864H11.0926V10.2724C11.0926 9.34636 10.342 8.5957 9.41595 8.5957Z" fill="#F93A5A"/>
<path id="Vector_17" d="M11.66 17.3284H4.33723C4.14992 17.3284 3.99805 17.1766 3.99805 16.9892V16.0102C3.99805 15.8229 4.14992 15.671 4.33723 15.671H11.6601C11.8474 15.671 11.9993 15.8229 11.9993 16.0102V16.9892C11.9992 17.1766 11.8474 17.3284 11.66 17.3284Z" fill="#F93A5A"/>
</g>
<path id="Vector_18" d="M11.6599 15.671H9.83789V17.3284H11.6599C11.8472 17.3284 11.9991 17.1766 11.9991 16.9892V16.0102C11.9991 15.8228 11.8472 15.671 11.6599 15.671Z" fill="#D63054"/>
<g id="Group_6">
<path id="Vector_19" d="M14.2408 16.6271H13.0938V19.4443H14.2408V16.6271Z" fill="#45748C"/>
<path id="Vector_20" d="M18.8931 16.6271H17.7461V19.4443H18.8931V16.6271Z" fill="#45748C"/>
</g>
<path id="Vector_21" d="M17.4162 8.5957H14.5819C13.6559 8.5957 12.9053 9.34636 12.9053 10.2724V16.2864H19.0929V10.2724C19.0929 9.34636 18.3422 8.5957 17.4162 8.5957Z" fill="#FF4F6D"/>
<g id="Group_7">
<path id="Vector_22" d="M17.4161 8.5957H15.2852C16.2112 8.5957 16.9618 9.34636 16.9618 10.2724V16.2864H19.0928V10.2724C19.0928 9.34636 18.3421 8.5957 17.4161 8.5957Z" fill="#F93A5A"/>
<path id="Vector_23" d="M19.6601 17.3284H12.3372C12.1499 17.3284 11.998 17.1766 11.998 16.9892V16.0102C11.998 15.8229 12.1499 15.671 12.3372 15.671H19.6601C19.8474 15.671 19.9993 15.8229 19.9993 16.0102V16.9892C19.9993 17.1766 19.8474 17.3284 19.6601 17.3284Z" fill="#F93A5A"/>
</g>
<path id="Vector_24" d="M19.6603 15.671H17.8584V17.3284H19.6603C19.8476 17.3284 19.9995 17.1766 19.9995 16.9892V16.0102C19.9995 15.8228 19.8476 15.671 19.6603 15.671Z" fill="#D63054"/>
<g id="Group_8">
<path id="Vector_25" d="M11.147 19.1061H9.50207C9.30918 19.1061 9.14287 19.2603 9.14756 19.4531C9.14784 19.4655 9.14878 19.478 9.15032 19.4905C9.1731 19.6735 9.33731 19.8063 9.52171 19.8063H9.74503H10.8921H11.127C11.3119 19.8063 11.4765 19.6729 11.4988 19.4893C11.5004 19.4767 11.5012 19.4643 11.5015 19.452C11.5056 19.2596 11.3394 19.1061 11.147 19.1061Z" fill="#2C5871"/>
<path id="Vector_26" d="M6.49467 19.1061H4.84973C4.65684 19.1061 4.49053 19.2603 4.49521 19.4531C4.4955 19.4655 4.49643 19.478 4.49798 19.4905C4.52076 19.6735 4.68496 19.8063 4.86937 19.8063H5.09268H6.23976H6.47465C6.65962 19.8063 6.8242 19.6729 6.84646 19.4893C6.84801 19.4767 6.84885 19.4643 6.84914 19.452C6.85321 19.2596 6.68709 19.1061 6.49467 19.1061Z" fill="#2C5871"/>
<path id="Vector_27" d="M2.49076 14.692H0.845823C0.652933 14.692 0.48662 14.8462 0.491308 15.0391C0.491589 15.0514 0.492526 15.0639 0.494073 15.0765C0.516855 15.2595 0.681058 15.3922 0.865464 15.3922H1.08878H2.23585H2.47075C2.65571 15.3922 2.82029 15.2588 2.84256 15.0752C2.8441 15.0627 2.84495 15.0502 2.84523 15.0379C2.84935 14.8455 2.68323 14.692 2.49076 14.692Z" fill="#2C5871"/>
<path id="Vector_28" d="M23.1421 14.692H21.4972C21.3043 14.692 21.138 14.8462 21.1427 15.0391C21.143 15.0514 21.1439 15.0639 21.1454 15.0765C21.1682 15.2595 21.3324 15.3922 21.5168 15.3922H21.7401H22.8872H23.1221C23.3071 15.3922 23.4717 15.2588 23.4939 15.0752C23.4955 15.0627 23.4963 15.0502 23.4966 15.0379C23.5007 14.8455 23.3345 14.692 23.1421 14.692Z" fill="#2C5871"/>
<path id="Vector_29" d="M14.4956 19.1061H12.8507C12.6578 19.1061 12.4915 19.2603 12.4962 19.4531C12.4965 19.4655 12.4974 19.478 12.499 19.4905C12.5217 19.6735 12.6859 19.8063 12.8703 19.8063H13.0937H14.2407H14.4756C14.6606 19.8063 14.8252 19.6729 14.8474 19.4893C14.849 19.4767 14.8498 19.4643 14.8501 19.452C14.8542 19.2596 14.6881 19.1061 14.4956 19.1061Z" fill="#2C5871"/>
<path id="Vector_30" d="M19.148 19.1061H17.503C17.3101 19.1061 17.1438 19.2603 17.1485 19.4532C17.1488 19.4655 17.1498 19.478 17.1513 19.4906C17.1741 19.6736 17.3383 19.8063 17.5228 19.8063H17.7461H18.8931H19.128C19.313 19.8063 19.4776 19.6729 19.4998 19.4893C19.5014 19.4768 19.5022 19.4643 19.5025 19.452C19.5065 19.2596 19.3404 19.1061 19.148 19.1061Z" fill="#2C5871"/>
</g>
</g>
<defs>
<clipPath id="clip0_12_5399">
<rect width="24" height="24" fill="white"/>
</clipPath>
</defs>
</svg>
