<svg width="25" height="24" viewBox="0 0 25 24" fill="none" xmlns="http://www.w3.org/2000/svg">
<g id="toilet- 1">
<path id="Vector" d="M5.86523 7.5C7.52209 7.5 8.86523 6.15685 8.86523 4.5C8.86523 2.84315 7.52209 1.5 5.86523 1.5C4.20838 1.5 2.86523 2.84315 2.86523 4.5C2.86523 6.15685 4.20838 7.5 5.86523 7.5Z" fill="#6581C6"/>
<path id="Vector_2" d="M9.99023 11.25V16.125C9.99023 16.3313 9.82148 16.5 9.61523 16.5H8.11523V22.125C8.11523 22.3313 7.94648 22.5 7.74023 22.5H3.99023C3.78398 22.5 3.61523 22.3313 3.61523 22.125V16.5H2.11523C1.90898 16.5 1.74023 16.3313 1.74023 16.125V11.25C1.74023 10.0087 2.74898 9 3.99023 9H7.74023C8.98148 9 9.99023 10.0087 9.99023 11.25Z" fill="#6581C6"/>
<path id="Vector_3" d="M18.6152 7.5C20.2721 7.5 21.6152 6.15685 21.6152 4.5C21.6152 2.84315 20.2721 1.5 18.6152 1.5C16.9584 1.5 15.6152 2.84315 15.6152 4.5C15.6152 6.15685 16.9584 7.5 18.6152 7.5Z" fill="#E26677"/>
<path id="Vector_4" d="M21.3417 9.63C21.2817 9.26625 20.9704 9 20.6029 9H16.6317C16.2642 9 15.9492 9.26625 15.8929 9.63L14.5617 17.94C14.5242 18.1687 14.7004 18.375 14.9329 18.375H17.1192V22.5H20.1192V18.375H22.3054C22.5379 18.375 22.7104 18.1687 22.6767 17.94L21.3454 9.63H21.3417Z" fill="#E26677"/>
<path id="Vector_5" d="M6.24023 16.5V22.5H5.49023V16.5C5.49023 16.2937 5.65898 16.125 5.86523 16.125C6.07148 16.125 6.24023 16.2937 6.24023 16.5Z" fill="#5064AA"/>
<path id="Vector_6" d="M12.2402 21.375C12.034 21.375 11.8652 21.2062 11.8652 21V3C11.8652 2.79375 12.034 2.625 12.2402 2.625C12.4465 2.625 12.6152 2.79375 12.6152 3V21C12.6152 21.2062 12.4465 21.375 12.2402 21.375Z" fill="#536882"/>
</g>
</svg>
