<svg width="24" height="24" viewBox="0 0 24 24" fill="none" xmlns="http://www.w3.org/2000/svg">
<g id="shuttlecock">
<g id="Group">
<g id="Group_2">
<g id="Group_3">
<g id="Group_4">
<path id="Vector" d="M9.34261 20.6709L8.28661 21.7269C6.62718 23.3864 3.93232 23.3864 2.27289 21.7269C0.613463 20.0675 0.613463 17.3727 2.27289 15.7132L3.32889 14.6572L9.34261 20.6709Z" fill="#E5E8F9"/>
</g>
</g>
<g id="Group_5">
<g id="Group_6">
<path id="Vector_2" d="M9.34258 20.6709L8.28657 21.7269C6.62372 23.3898 3.93572 23.3898 2.27629 21.7303L2.27286 21.7269C1.74486 21.1989 1.38829 20.5715 1.19629 19.9029C1.24086 19.9509 1.28886 20.0023 1.34029 20.0503C3.00315 21.7132 5.69115 21.7132 7.35057 20.0538L8.03629 19.368L9.34258 20.6709Z" fill="#D6DBF2"/>
</g>
</g>
<g id="Group_7">
<g id="Group_8">
<path id="Vector_3" d="M2.89666 20.3178C2.85209 20.3178 2.81095 20.2973 2.78695 20.2561C2.23152 19.3544 2.20752 18.2195 2.72181 17.2938C2.75609 17.2321 2.83495 17.2081 2.89666 17.2458C2.95838 17.2801 2.98238 17.359 2.94809 17.4207C2.47838 18.2641 2.49895 19.2995 3.00638 20.1224C3.04409 20.1841 3.02352 20.263 2.96524 20.3007C2.94124 20.311 2.92066 20.3178 2.89666 20.3178Z" fill="white"/>
</g>
</g>
<g id="Group_9">
<g id="Group_10">
<path id="Vector_4" d="M12.3149 3.6652L5.95831 14.4309L4.75488 13.2275L9.18803 2.1292C9.65431 0.963484 11.1595 0.654912 12.0475 1.54291C12.6097 2.1052 12.7195 2.97948 12.3149 3.6652Z" fill="#D6DBF2"/>
</g>
</g>
<g id="Group_11">
<g id="Group_12">
<path id="Vector_5" d="M5.95879 14.4309L4.75879 13.2275L5.59879 11.1189L7.05593 12.5726L5.95879 14.4309Z" fill="#C5CEEA"/>
</g>
</g>
<g id="Group_13">
<g id="Group_14">
<path id="Vector_6" d="M14.8047 6.55895L7.16241 15.6344L5.95898 14.4309L11.8561 4.44009C12.4356 3.45609 13.7898 3.28466 14.5956 4.0938L14.6984 4.19666C15.343 4.8378 15.3876 5.86295 14.8047 6.55895Z" fill="#E5E8F9"/>
</g>
</g>
<g id="Group_15">
<g id="Group_16">
<path id="Vector_7" d="M17.2113 9.39091L8.36554 16.8378L7.16211 15.6343L14.609 6.78863C15.2673 6.00691 16.457 5.95548 17.1804 6.67891L17.321 6.81948C18.0478 7.54291 17.9964 8.7292 17.2113 9.39091Z" fill="#D6DBF2"/>
</g>
</g>
<g id="Group_17">
<g id="Group_18">
<path id="Vector_8" d="M10.2204 15.2744L8.36554 16.8378L7.16211 15.6344L8.51297 14.0298L8.72211 14.2389C9.1644 14.6812 9.67182 15.0275 10.2204 15.2744Z" fill="#C5CEEA"/>
</g>
</g>
<g id="Group_19">
<g id="Group_20">
<path id="Vector_9" d="M17.2939 9.31543C17.2665 9.34286 17.2391 9.36686 17.2082 9.39086L9.87793 15.5006L17.2939 9.31543Z" fill="#A9DCEA"/>
</g>
</g>
<g id="Group_21">
<g id="Group_22">
<path id="Vector_10" d="M19.5595 12.1406L9.56866 18.0378L8.36523 16.8343L17.4441 9.19206C18.1367 8.6092 19.1618 8.65034 19.8064 9.29491L19.9092 9.39777C20.7149 10.2103 20.5435 11.5612 19.5595 12.1406Z" fill="#E5E8F9"/>
</g>
</g>
<g id="Group_23">
<g id="Group_24">
<path id="Vector_11" d="M21.8706 14.8115L10.7689 19.2446L9.56543 18.0412L20.3346 11.6846C21.0203 11.2801 21.8946 11.3898 22.4569 11.9555C23.3449 12.8401 23.0363 14.3452 21.8706 14.8115Z" fill="#D6DBF2"/>
</g>
</g>
<g id="Group_25">
<g id="Group_26">
<path id="Vector_12" d="M22.9716 13.1829C22.9716 13.8617 22.5808 14.5269 21.8711 14.8114L10.7728 19.2446L9.56934 18.0411L14.0676 15.3874C14.095 15.3806 14.1225 15.3703 14.1533 15.3566L22.1762 12.1577C22.2893 12.1131 22.3956 12.0549 22.4916 11.9931C22.4848 11.9794 22.4745 11.9691 22.4642 11.9589C22.807 12.3017 22.9716 12.744 22.9716 13.1829Z" fill="#C5CEEA"/>
</g>
</g>
<g id="Group_27">
<g id="Group_28">
<path id="Vector_13" d="M7.16241 15.6343L5.95898 14.4309L7.05613 12.5726L8.51327 14.0298L7.16241 15.6343Z" fill="#D6DBF2"/>
</g>
</g>
<g id="Group_29">
<g id="Group_30">
<path id="Vector_14" d="M14.064 15.384L9.56573 18.0377L8.3623 16.8343L10.2172 15.2709C11.4172 15.8092 12.7989 15.8709 14.064 15.384Z" fill="#D6DBF2"/>
</g>
</g>
<g id="Group_31">
<g id="Group_32">
<path id="Vector_15" d="M8.21837 6.92915C8.1978 6.92915 8.17722 6.92572 8.16008 6.91543C8.09837 6.88115 8.07437 6.80572 8.10522 6.74058L9.53494 4.01486C9.56922 3.95315 9.64465 3.92572 9.7098 3.96C9.77151 3.99429 9.79551 4.06972 9.76465 4.13486L8.33494 6.86058C8.31094 6.90515 8.26637 6.92915 8.21837 6.92915Z" fill="white"/>
</g>
</g>
<g id="Group_33">
<g id="Group_34">
<path id="Vector_16" d="M3.69629 14.2855L4.75315 13.2287L10.7647 19.2402L9.70781 20.297L3.69629 14.2855Z" fill="#666666"/>
</g>
</g>
<g id="Group_35">
<g id="Group_36">
<path id="Vector_17" d="M8.40332 18.9899L9.46034 17.9328L10.7671 19.2396L9.71005 20.2966L8.40332 18.9899Z" fill="#595857"/>
</g>
</g>
<g id="Group_37">
<g id="Group_38">
<path id="Vector_18" d="M2.64258 15.3436L3.69944 14.2868L9.71096 20.2983L8.6541 21.3551L2.64258 15.3436Z" fill="#FF4848"/>
</g>
</g>
<g id="Group_39">
<g id="Group_40">
<path id="Vector_19" d="M7.34961 20.048L8.40663 18.9909L9.71337 20.2977L8.65634 21.3547L7.34961 20.048Z" fill="#F91C1C"/>
</g>
</g>
</g>
</g>
</g>
</svg>
