<svg width="24" height="24" viewBox="0 0 24 24" fill="none" xmlns="http://www.w3.org/2000/svg">
<g id="soccer-ball" clip-path="url(#clip0_12_5254)">
<path id="Vector" d="M23.9994 11.9996C23.9994 18.6269 18.6269 23.9994 11.9996 23.9994C5.3725 23.9994 0 18.6269 0 11.9996C0 5.3725 5.3725 0 11.9996 0C18.6269 0 23.9994 5.3725 23.9994 11.9996Z" fill="#CFD8DC"/>
<g id="Group">
<path id="Vector_2" d="M2.46516 15.7161C2.34285 15.7161 2.22365 15.6543 2.15535 15.5422C2.05135 15.3714 2.10573 15.1485 2.27657 15.0445L7.78987 11.6904C7.96089 11.5864 8.18355 11.6408 8.28755 11.8116C8.39155 11.9824 8.33736 12.2053 8.16633 12.3091L2.65303 15.6634C2.59425 15.6991 2.52925 15.7161 2.46516 15.7161Z" fill="#90A4AE"/>
<path id="Vector_3" d="M11.9966 22.1642C11.9962 22.1642 11.996 22.1642 11.9957 22.1642C11.7957 22.1639 11.649 22.0013 11.6494 21.8013V14.7179C11.6498 14.5181 11.8118 14.3564 12.0116 14.3564H12.0123C12.2123 14.3568 12.3741 14.5194 12.3738 14.7194V21.8028C12.3732 22.0026 12.1962 22.1642 11.9966 22.1642Z" fill="#90A4AE"/>
<path id="Vector_4" d="M9.7688 7.90931C9.68036 7.90931 9.59192 7.87726 9.52216 7.81226L5.33399 3.91138C5.18769 3.77497 5.17963 3.5459 5.31586 3.39942C5.45228 3.25312 5.68134 3.24506 5.82783 3.38129L10.0158 7.28217C10.1621 7.41858 10.1704 7.64765 10.0339 7.79413C9.96253 7.87067 9.86585 7.90931 9.7688 7.90931Z" fill="#90A4AE"/>
<path id="Vector_5" d="M21.5588 15.7162C21.4947 15.7162 21.4297 15.6992 21.371 15.6635L15.8577 12.3091C15.6866 12.2051 15.6324 11.9825 15.7364 11.8115C15.8403 11.6406 16.0631 11.5864 16.2339 11.6904L21.7474 15.0446C21.9183 15.1486 21.9725 15.3714 21.8686 15.5422C21.8003 15.6543 21.6811 15.7162 21.5588 15.7162Z" fill="#90A4AE"/>
<path id="Vector_6" d="M14.2549 7.90931C14.1579 7.90931 14.0612 7.87067 13.9898 7.79413C13.8533 7.64765 13.8616 7.41858 14.0079 7.28217L18.1961 3.38129C18.3424 3.24506 18.5714 3.25312 18.7078 3.39942C18.8443 3.5459 18.836 3.77497 18.6897 3.91138L14.5015 7.81226C14.4318 7.87726 14.3432 7.90931 14.2549 7.90931Z" fill="#90A4AE"/>
<path id="Vector_7" d="M16.3696 0.820923C19.7891 2.93524 22.0679 6.7182 22.0679 11.034C22.0679 17.6611 16.6954 23.0336 10.0681 23.0336C8.52631 23.0336 7.05231 22.7425 5.69824 22.2128C7.52966 23.3453 9.68811 23.9995 11.9996 23.9995C18.6269 23.9995 23.9994 18.627 23.9994 11.9997C23.9994 6.91449 20.8359 2.5683 16.3696 0.820923Z" fill="#90A4AE"/>
</g>
<path id="Vector_8" d="M9.58453 0.243164C6.15698 0.943542 3.26154 3.1051 1.57715 6.04889L6.62976 4.76806C6.70831 4.74829 6.77606 4.69903 6.81927 4.63055L9.58453 0.243164Z" fill="#546E7A"/>
<path id="Vector_9" d="M0.0807495 10.6006C0.0274658 11.0596 0 11.5265 0 11.9997C0 15.1255 1.19513 17.972 3.15326 20.1074L3.50079 14.8444C3.5061 14.7637 3.4801 14.6838 3.42828 14.6218L0.0807495 10.6006Z" fill="#546E7A"/>
<path id="Vector_10" d="M22.4224 6.04889C20.738 3.1051 17.8426 0.943542 14.415 0.243164L17.1803 4.63055C17.2235 4.69903 17.2913 4.74829 17.3696 4.76825L22.4224 6.04889Z" fill="#546E7A"/>
<path id="Vector_11" d="M20.7866 5.6344L22.4213 6.04877C21.0592 3.66821 18.9171 1.81885 16.3721 0.822754C18.2515 1.98529 19.7857 3.6521 20.7866 5.6344Z" fill="#37474F"/>
<path id="Vector_12" d="M23.9188 10.6006L20.5711 14.6218C20.5192 14.684 20.4934 14.7637 20.4987 14.8444L20.8463 20.1074C22.8044 17.972 23.9995 15.1255 23.9995 11.9999C23.9995 11.5265 23.9721 11.0596 23.9188 10.6006Z" fill="#546E7A"/>
<path id="Vector_13" d="M23.9185 10.6006L21.9028 13.0218C21.6815 14.3491 21.2431 15.603 20.624 16.7451L20.8459 20.1067C23.2234 17.5141 24.3204 14.0538 23.9185 10.6006Z" fill="#37474F"/>
<path id="Vector_14" d="M6.95703 22.8915C8.49017 23.6025 10.1987 23.9994 11.9999 23.9994C13.8013 23.9994 15.5099 23.6025 17.043 22.8915L12.1404 20.4554C12.0519 20.4115 11.9481 20.4115 11.8597 20.4554L6.95703 22.8915Z" fill="#546E7A"/>
<path id="Vector_15" d="M17.0422 22.8909L15.1044 21.9281C12.6266 23.0753 9.86755 23.3159 7.31232 22.7149L6.95801 22.8911C10.1442 24.3687 13.8536 24.3689 17.0422 22.8909Z" fill="#37474F"/>
<path id="Vector_16" d="M14.9899 6.64124H9.02323C8.88755 6.64124 8.76725 6.72784 8.72404 6.85638L6.81919 12.5288C6.77506 12.6601 6.82176 12.8049 6.93436 12.8857L10.2535 15.2666L11.8225 16.3921C11.9331 16.4714 12.082 16.4711 12.1921 16.3911L13.402 15.512L17.0185 12.8846C17.1291 12.8042 17.1753 12.6617 17.1332 12.5317L15.29 6.85931C15.2477 6.72931 15.1265 6.64124 14.9899 6.64124Z" fill="#546E7A"/>
<path id="Vector_17" d="M14.9902 6.64124H13.6017L14.4719 9.31915C14.9494 10.7889 14.4263 12.399 13.176 13.3074L11.4709 14.5463L10.3672 15.3481L11.8229 16.3923C11.9335 16.4716 12.0823 16.4713 12.1924 16.3912L13.4023 15.5121L17.0187 12.8846C17.1295 12.8042 17.1756 12.6617 17.1335 12.5317L15.2903 6.8595C15.248 6.72931 15.1268 6.64124 14.9902 6.64124Z" fill="#37474F"/>
</g>
<defs>
<clipPath id="clip0_12_5254">
<rect width="24" height="24" fill="white"/>
</clipPath>
</defs>
</svg>
