<svg width="24" height="24" viewBox="0 0 24 24" fill="none" xmlns="http://www.w3.org/2000/svg">
<g id="location (3) 1">
<path id="Vector" d="M12 0C9.6139 0.00277099 7.32633 0.951872 5.6391 2.6391C3.95187 4.32633 3.00277 6.6139 3 9C3 16.1436 11.3154 23.5625 11.6694 23.875C11.7607 23.9555 11.8783 24 12 24C12.1217 24 12.2393 23.9555 12.3306 23.875C12.6846 23.5625 21 16.1436 21 9C20.9972 6.6139 20.0481 4.32633 18.3609 2.6391C16.6737 0.951872 14.3861 0.00277099 12 0ZM12 13C11.2089 13 10.4355 12.7654 9.77772 12.3259C9.11992 11.8864 8.60723 11.2616 8.30448 10.5307C8.00173 9.79983 7.92252 8.99556 8.07686 8.21964C8.2312 7.44371 8.61216 6.73098 9.17157 6.17157C9.73098 5.61216 10.4437 5.2312 11.2196 5.07686C11.9956 4.92252 12.7998 5.00173 13.5307 5.30448C14.2616 5.60723 14.8864 6.11992 15.3259 6.77772C15.7654 7.43552 16 8.20887 16 9C15.9988 10.0605 15.577 11.0772 14.8271 11.8271C14.0772 12.577 13.0605 12.9988 12 13Z" fill="#8E8E8E"/>
</g>
</svg>
