<svg width="24" height="24" viewBox="0 0 24 24" fill="none" xmlns="http://www.w3.org/2000/svg">
<g id="soccer-ball 1" clip-path="url(#clip0_12_4076)">
<path id="Vector" d="M4.97221 10.619L3.38899 7.46118L0.757055 7.84844C0.285919 9.12395 0.0361055 10.4706 0.0185547 11.8302L2.43942 13.087L4.97221 10.619Z" fill="white"/>
<path id="Vector_2" d="M10.1156 0.150948L9.16309 3.09082L12.0154 5.17298L14.8675 3.09424L13.915 0.150948C12.6566 -0.050316 11.374 -0.050316 10.1156 0.150948Z" fill="white"/>
<path id="Vector_3" d="M20.6428 7.46118L19.0596 10.619L21.5921 13.087L24.013 11.8302C23.9954 10.4706 23.7456 9.12417 23.2745 7.84867L20.6428 7.46118Z" fill="white"/>
<path id="Vector_4" d="M7.41263 18.613L4.11035 19.8623L4.17394 21.0758C5.38199 22.1221 6.78696 22.9162 8.3059 23.4119L9.63976 21.3708L7.41263 18.613Z" fill="white"/>
<path id="Vector_5" d="M14.3916 21.3709L15.7255 23.412C17.2446 22.9163 18.6494 22.1219 19.8574 21.076L19.9212 19.8622L16.619 18.6129L14.3916 21.3709Z" fill="white"/>
<path id="Vector_6" d="M21.5181 13.9945C21.4114 13.9945 21.3091 13.953 21.2329 13.8785L18.4554 11.1718L17.9238 11.2053C17.9149 11.206 17.9063 11.2062 17.8976 11.2062C17.6772 11.206 17.4967 11.0309 17.4898 10.8105C17.483 10.5901 17.6521 10.4041 17.8721 10.3902L18.273 10.3647L20.0441 6.83175C20.1229 6.67424 20.2941 6.58512 20.4685 6.61065L22.9076 6.96942C21.3649 3.64525 18.3931 1.20364 14.8328 0.335449L15.7357 3.12466C15.7899 3.29264 15.7302 3.47658 15.5875 3.58052L12.365 5.92913V6.34032C12.365 6.56575 12.1822 6.74878 11.9566 6.74878C11.7309 6.74878 11.5481 6.56575 11.5481 6.34032V5.84389L8.44207 3.57665C8.29962 3.47248 8.2399 3.28877 8.29438 3.12078L9.19653 0.335449C5.63623 1.20387 2.66468 3.64525 1.12203 6.96942L3.56114 6.61065C3.7355 6.58512 3.90668 6.67424 3.98577 6.83175L5.75703 10.3647L6.15797 10.3902C6.37792 10.4041 6.54728 10.5901 6.54044 10.8105C6.5336 11.0309 6.35308 11.206 6.13267 11.2062C6.12378 11.2062 6.11512 11.2062 6.10623 11.2053L5.57469 11.1718L2.79733 13.8785C2.67106 14.0016 2.48028 14.0296 2.32392 13.9485L0.0400391 12.763C0.217142 15.5668 1.37549 18.2186 3.31223 20.2535L3.27827 19.6078C3.26893 19.4302 3.37537 19.267 3.54176 19.2041L7.19802 17.8213L7.32133 17.3239C7.37763 17.1076 7.59759 16.9768 7.81458 17.0306C8.0318 17.0841 8.16537 17.3025 8.11431 17.5202L7.98872 18.0273L10.4616 21.0896C10.573 21.2275 10.5826 21.4215 10.4855 21.5698L9.12724 23.6484C11.0239 24.1177 13.0062 24.1177 14.9026 23.6484L13.5443 21.5698C13.4475 21.4215 13.457 21.2275 13.5685 21.0898L16.0411 18.0273L15.9157 17.5202C15.8615 17.3014 15.9948 17.0798 16.2139 17.0256C16.4329 16.9713 16.6542 17.1049 16.7087 17.3237L16.8318 17.821L20.4883 19.2039C20.6545 19.2668 20.7609 19.43 20.7516 19.6073L20.7176 20.2533C22.6543 18.2183 23.8129 15.5663 23.9898 12.7628L21.7061 13.9482C21.648 13.9786 21.5835 13.9943 21.5181 13.9945ZM15.9563 11.6379L15.6627 11.6614L14.5283 15.19L14.7155 15.4551C14.8016 15.5743 14.8169 15.7307 14.7558 15.8642C14.6947 15.998 14.5664 16.0885 14.4198 16.1013C14.2735 16.1141 14.1315 16.047 14.0481 15.926L13.8719 15.6764H10.1579L9.98199 15.926C9.89856 16.047 9.75656 16.1141 9.61 16.1013C9.46367 16.0883 9.33534 15.9978 9.27403 15.8642C9.21294 15.7304 9.22844 15.5743 9.31437 15.4551L9.50173 15.1896L8.37164 11.6619L8.07351 11.6382C7.9274 11.6274 7.79817 11.5395 7.73503 11.4073C7.67166 11.2751 7.68397 11.1192 7.7674 10.9986C7.85059 10.8782 7.99214 10.8114 8.13801 10.824L8.5859 10.8593L11.6065 8.63925V8.32424C11.6065 8.09859 11.7893 7.91579 12.0149 7.91579C12.2406 7.91579 12.4234 8.09859 12.4234 8.32424V8.6397L15.4275 10.8604L15.8918 10.8237C16.0377 10.8112 16.1792 10.878 16.2624 10.9983C16.3459 11.1189 16.3582 11.2748 16.295 11.407C16.2317 11.5392 16.1024 11.6272 15.9563 11.6379Z" fill="white"/>
<path id="Vector_7" d="M9.16211 11.4495L10.2541 14.8592H13.7771L14.8688 11.4628L12.0147 9.35303L9.16211 11.4495Z" fill="white"/>
</g>
<defs>
<clipPath id="clip0_12_4076">
<rect width="24" height="24" fill="white"/>
</clipPath>
</defs>
</svg>
