<svg width="24" height="24" viewBox="0 0 24 24" fill="none" xmlns="http://www.w3.org/2000/svg">
<g id="tennis-ball 1" clip-path="url(#clip0_12_4109)">
<g id="Group">
<g id="Group_2">
<g id="Group_3">
<path id="Vector" d="M10.8743 0.0462646C8.18955 0.296625 5.56868 1.45227 3.50892 3.51085C1.44917 5.56885 0.294696 8.18972 0.0449219 10.878C2.99296 11.2198 6.12745 12.7267 8.70082 15.3001C11.2754 17.874 12.784 21.0109 13.1229 23.9566C15.8153 23.7068 18.4297 22.5517 20.4912 20.4943C22.5504 18.4369 23.7037 15.8149 23.9523 13.1272C21.0113 12.7859 17.8715 11.2791 15.2981 8.7051C12.7265 6.13172 11.2179 2.9943 10.8743 0.0462646Z" fill="white"/>
<path id="Vector_2" d="M24.0006 11.6385C23.9133 8.68639 22.7453 5.76181 20.495 3.50856C18.2435 1.25532 15.3154 0.0914665 12.3633 0C12.6951 2.57807 14.0642 5.34845 16.3591 7.64391C18.654 9.93936 21.4208 11.3061 24.0006 11.6385Z" fill="white"/>
<path id="Vector_3" d="M0.000976562 12.3655C0.0877525 15.3164 1.2563 18.2416 3.50895 20.4937C5.75985 22.7446 8.68444 23.9143 11.636 23.9999C11.3041 21.4254 9.93682 18.6567 7.64078 16.3613C5.34708 14.067 2.57728 12.6997 0.000976562 12.3655Z" fill="white"/>
</g>
</g>
</g>
</g>
<defs>
<clipPath id="clip0_12_4109">
<rect width="24" height="24" fill="white"/>
</clipPath>
</defs>
</svg>
