<svg width="24" height="25" viewBox="0 0 24 25" fill="none" xmlns="http://www.w3.org/2000/svg">
<g id="user">
<path id="Vector" d="M16.3125 9.875C16.3125 7.49375 14.3812 5.5625 12 5.5625C9.61875 5.5625 7.6875 7.49375 7.6875 9.875C7.6875 12.2562 9.61875 14.1875 12 14.1875C14.3812 14.1875 16.3125 12.2562 16.3125 9.875ZM8.8125 9.875C8.8125 8.1125 10.2375 6.6875 12 6.6875C13.7625 6.6875 15.1875 8.1125 15.1875 9.875C15.1875 11.6375 13.7625 13.0625 12 13.0625C10.2375 13.0625 8.8125 11.6375 8.8125 9.875Z" fill="#484848"/>
<path id="Vector_2" d="M4.78132 20.7875C4.87507 20.8437 4.96882 20.8625 5.06257 20.8625C5.25007 20.8625 5.45632 20.7687 5.55007 20.5812C6.86257 18.2562 9.33756 16.8125 12.0001 16.8125C14.6626 16.8125 17.1376 18.2562 18.4688 20.5812C18.6188 20.8437 18.9751 20.9375 19.2376 20.7875C19.5001 20.6375 19.5938 20.2812 19.4438 20.0187C17.9251 17.3562 15.0751 15.6875 12.0001 15.6875C8.92507 15.6875 6.07507 17.3562 4.55631 20.0187C4.40631 20.2812 4.50007 20.6375 4.78132 20.7875Z" fill="#484848"/>
</g>
</svg>
