<svg width="24" height="24" viewBox="0 0 24 24" fill="none" xmlns="http://www.w3.org/2000/svg">
<g id="volleyball 1" clip-path="url(#clip0_12_4087)">
<g id="Group">
<path id="Vector" d="M22.8034 11.3687C20.3276 8.94357 16.2773 6.50992 10.4502 7.5289C10.6523 8.67409 11.1996 9.86976 12.2775 11.0571C14.5006 10.5603 16.3109 10.8382 17.7678 11.5118C17.8267 11.5286 17.8773 11.5539 17.9193 11.5708C20.0161 12.5813 21.3718 14.3833 22.1549 15.7558C22.2476 15.9243 22.3318 16.0927 22.4075 16.2443C22.9549 14.9306 23.2496 13.4991 23.2496 11.9918C23.2496 11.9244 23.2496 11.8655 23.2412 11.7981C23.2075 11.7729 22.9212 11.4782 22.8034 11.3687Z" fill="white"/>
<path id="Vector_2" d="M17.9957 13.5493C16.4716 17.7176 13.5917 20.8332 9.68455 22.5679C9.47398 22.669 9.25508 22.7531 9.03613 22.8458C9.97927 23.1069 10.9729 23.2415 12.0002 23.2415C15.9327 23.2415 19.402 21.2122 21.4061 18.1386C21.3893 18.0965 21.3387 17.9197 21.2293 17.6586C20.8503 16.7492 19.8651 14.7704 17.9957 13.5493Z" fill="white"/>
<path id="Vector_3" d="M12.6736 12.7075C11.8568 15.2927 10.3832 16.8337 8.76643 17.7178C8.70752 17.7515 8.64856 17.7852 8.59802 17.802C6.92238 18.6863 5.12872 18.8967 3.77301 18.8967C3.77301 18.8967 3.28462 18.8883 3.11621 18.8799C4.0593 20.1093 5.24665 21.1198 6.6192 21.8692C6.6192 21.8692 7.03183 21.7429 7.19182 21.6924C10.4759 20.7156 14.5178 18.3746 16.4714 12.817C15.4103 12.4718 14.1557 12.3707 12.6736 12.7075Z" fill="white"/>
<path id="Vector_4" d="M22.332 8.74953C22.5172 8.89267 22.711 9.03581 22.8962 9.18742C21.6921 4.52236 17.5912 1.02778 12.6314 0.758301H12.623V0.766723C12.5893 0.800368 12.463 0.943558 12.2862 1.17088C11.7052 1.93723 10.5431 3.68872 10.3662 5.82753C14.7618 5.13709 18.8964 6.14755 22.332 8.74953Z" fill="white"/>
<path id="Vector_5" d="M8.66531 6.83804C8.56428 4.60654 9.41476 2.62772 10.1895 1.31407C10.2821 1.14566 10.3831 0.985667 10.4758 0.842529C8.66531 1.09517 6.98957 1.76882 5.5581 2.77928C5.5581 2.82135 5.47388 3.22556 5.44022 3.38555C4.76658 6.69485 4.85914 11.3684 8.49689 15.8987C9.55794 15.1408 10.4926 13.9787 11.0483 12.2188C9.44003 10.4758 8.79161 8.69057 8.68215 7.04015C8.66531 6.97277 8.65688 6.90539 8.66531 6.83804Z" fill="white"/>
<path id="Vector_6" d="M1.96257 17.0607H1.97099C2.01311 17.0692 2.18994 17.1029 2.47623 17.145C3.3436 17.2629 5.17928 17.3807 6.97289 16.7071C3.87406 12.7157 3.22568 8.64848 3.47828 5.32233C3.49512 5.07816 3.52039 4.83399 3.54566 4.58972C1.80258 6.56859 0.75 9.16219 0.75 11.9915C0.75 13.8188 1.1879 15.5366 1.96257 17.0607Z" fill="white"/>
</g>
</g>
<defs>
<clipPath id="clip0_12_4087">
<rect width="24" height="24" fill="white"/>
</clipPath>
</defs>
</svg>
