<svg width="17" height="16" viewBox="0 0 17 16" fill="none" xmlns="http://www.w3.org/2000/svg">
<path d="M16.2104 8.18994C16.2104 12.4712 12.7104 15.9399 8.46035 15.9399C4.1791 15.9399 0.710352 12.4712 0.710352 8.18994C0.710352 3.93994 4.1791 0.439941 8.46035 0.439941C12.7104 0.439941 16.2104 3.93994 16.2104 8.18994ZM7.5541 12.3149L13.3041 6.56494C13.4916 6.37744 13.4916 6.03369 13.3041 5.84619L12.5854 5.15869C12.3979 4.93994 12.0854 4.93994 11.8979 5.15869L7.21035 9.84619L4.9916 7.65869C4.8041 7.43994 4.4916 7.43994 4.3041 7.65869L3.58535 8.34619C3.39785 8.53369 3.39785 8.87744 3.58535 9.06494L6.83535 12.3149C7.02285 12.5024 7.3666 12.5024 7.5541 12.3149Z" fill="#097E52"/>
</svg>
