<svg width="12" height="14" viewBox="0 0 12 14" fill="none" xmlns="http://www.w3.org/2000/svg">
<g id="Calendar">
<path id="Calendar_2" fill-rule="evenodd" clip-rule="evenodd" d="M8.94573 0.434962C8.91517 0.207938 8.72207 0.032959 8.48841 0.032959C8.23351 0.032959 8.02687 0.241199 8.02687 0.498075V1.01231H3.97876V0.498075L3.97455 0.434962C3.94398 0.207938 3.75088 0.032959 3.51722 0.032959C3.26232 0.032959 3.05569 0.241199 3.05569 0.498075V1.02385C1.16437 1.15411 0 2.37957 0 4.35682V9.969C0 12.0911 1.30556 13.3663 3.3975 13.3663H8.60243C10.6969 13.3663 12 12.1125 12 10.0159V4.35682C12.006 2.37887 10.8454 1.15375 8.94995 1.0238V0.498075L8.94573 0.434962ZM8.02687 1.94254V2.53887L8.03109 2.60198C8.06165 2.82901 8.25475 3.00399 8.48841 3.00399C8.74331 3.00399 8.94995 2.79575 8.94995 2.53887V1.95629C10.329 2.07102 11.0813 2.90145 11.0769 4.35539V4.62475H0.923073V4.35682C0.923073 2.9038 1.6795 2.07161 3.05569 1.95638V2.53887L3.0599 2.60198C3.09046 2.82901 3.28356 3.00399 3.51722 3.00399C3.77212 3.00399 3.97876 2.79575 3.97876 2.53887V1.94254H8.02687ZM0.923073 5.55498V9.969C0.923073 11.5707 1.80901 12.4361 3.3975 12.4361H8.60243C10.1964 12.4361 11.0769 11.5888 11.0769 10.0159L11.0769 5.55498H0.923073ZM9.20079 7.51184C9.20079 7.25496 8.99415 7.04672 8.73925 7.04672L8.67092 7.05097C8.44565 7.08177 8.27201 7.27637 8.27201 7.51184C8.27201 7.76871 8.47865 7.97695 8.73925 7.97695L8.80188 7.97271C9.02715 7.94191 9.20079 7.74731 9.20079 7.51184ZM6.00852 7.04672C6.26342 7.04672 6.47005 7.25496 6.47005 7.51184C6.47005 7.74731 6.29642 7.94191 6.07114 7.97271L6.00852 7.97695C5.74792 7.97695 5.54128 7.76871 5.54128 7.51184C5.54128 7.27637 5.71491 7.08177 5.94019 7.05097L6.00852 7.04672ZM3.73362 7.51184C3.73362 7.25496 3.52698 7.04672 3.27208 7.04672L3.20375 7.05097C2.97848 7.08177 2.80485 7.27637 2.80485 7.51184C2.80485 7.76871 3.01148 7.97695 3.26638 7.97695L3.33471 7.97271C3.55999 7.94191 3.73362 7.74731 3.73362 7.51184ZM8.73925 9.45697C8.99415 9.45697 9.20079 9.66521 9.20079 9.92209C9.20079 10.1576 9.02715 10.3522 8.80188 10.383L8.73925 10.3872C8.47865 10.3872 8.27201 10.179 8.27201 9.92209C8.27201 9.68661 8.44565 9.49201 8.67092 9.46122L8.73925 9.45697ZM6.47005 9.92209C6.47005 9.66521 6.26342 9.45697 6.00852 9.45697L5.94019 9.46122C5.71491 9.49201 5.54128 9.68661 5.54128 9.92209C5.54128 10.179 5.74792 10.3872 6.00852 10.3872L6.07114 10.383C6.29642 10.3522 6.47005 10.1576 6.47005 9.92209ZM3.27208 9.45697C3.52698 9.45697 3.73362 9.66521 3.73362 9.92209C3.73362 10.1576 3.55999 10.3522 3.33471 10.383L3.26638 10.3872C3.01148 10.3872 2.80485 10.179 2.80485 9.92209C2.80485 9.68661 2.97848 9.49201 3.20375 9.46122L3.27208 9.45697Z" fill="#6B7385"/>
</g>
</svg>
