<svg width="14" height="14" viewBox="0 0 14 14" fill="none" xmlns="http://www.w3.org/2000/svg">
<g id="Call">
<path id="Call_2" fill-rule="evenodd" clip-rule="evenodd" d="M3.3133 0.334464L3.33105 0.335609C3.68031 0.364557 3.98365 0.538124 4.26056 0.808678C4.78679 1.32263 5.91678 2.82242 6.0021 3.23058C6.09651 3.68592 5.99556 3.98166 5.69461 4.50481L5.62167 4.63374C5.48357 4.88597 5.46246 4.99012 5.50521 5.10937C6.1623 6.71753 7.2836 7.83865 8.87338 8.48796C9.02394 8.54249 9.13762 8.51124 9.45578 8.32872L9.62181 8.23479C10.0691 7.98946 10.3526 7.91192 10.7707 7.99899C11.1774 8.08421 12.6781 9.21493 13.1912 9.74048C13.4614 10.0171 13.6354 10.321 13.6657 10.6933C13.6976 11.5981 12.5935 12.8721 11.92 13.2552C11.1541 13.803 10.1821 13.7939 9.09231 13.2867C6.2424 12.1008 1.88301 7.76927 0.721263 4.92286L0.651719 4.76364C0.210589 3.7093 0.220147 2.79842 0.725662 2.1117C1.18693 1.34782 2.43057 0.293639 3.3133 0.334464ZM3.25942 1.30929L3.20065 1.31231C2.74759 1.3725 1.83903 2.15469 1.53646 2.65221L1.48418 2.72999C1.22353 3.15468 1.25374 3.73789 1.61664 4.53645L1.68599 4.69879C2.85634 7.32546 6.90855 11.3214 9.48525 12.3941L9.62717 12.4572C10.3727 12.7732 10.937 12.7592 11.3939 12.4352L11.4277 12.4135C11.5691 12.3152 11.8951 12.019 12.1462 11.7292C12.4989 11.3222 12.6987 10.9493 12.6923 10.7508C12.6852 10.6658 12.6197 10.5514 12.4935 10.4221C12.112 10.0314 10.7246 8.98604 10.5713 8.95391C10.4263 8.92371 10.3072 8.9643 9.98181 9.1515L9.81809 9.24347C9.33863 9.50204 9.00062 9.57153 8.52307 9.39819C6.67241 8.64283 5.35856 7.32916 4.5952 5.45986C4.41438 4.96005 4.51172 4.60643 4.82615 4.0584L4.90107 3.9266C5.04391 3.66868 5.07414 3.55926 5.04722 3.42945C5.015 3.27527 3.97027 1.88865 3.57906 1.50657C3.44952 1.38 3.33569 1.31487 3.2505 1.30781L3.25942 1.30929Z" fill="#6B7385"/>
</g>
</svg>
