<svg width="16" height="16" viewBox="0 0 16 16" fill="none" xmlns="http://www.w3.org/2000/svg">
<g id="check 1" clip-path="url(#clip0_12_5705)">
<g id="&#229;&#155;&#190;&#229;&#177;&#130;_x0020_1">
<g id="_228534408">
<path id="_228534648" fill-rule="evenodd" clip-rule="evenodd" d="M6.06213 10.2453L11.7006 4.6069C11.8667 4.44073 12.1394 4.44243 12.3039 4.6069L12.8483 5.15128C13.0127 5.31575 13.0127 5.59021 12.8483 5.75462L7.20991 11.393C7.04544 11.5575 6.77268 11.5592 6.60651 11.393L6.06213 10.8487C5.89596 10.6825 5.89596 10.4114 6.06213 10.2453Z" fill="#149D52"/>
<path id="_228534744" fill-rule="evenodd" clip-rule="evenodd" d="M4.30093 6.80866L7.73557 10.2433C7.90168 10.4095 7.89973 10.6826 7.73557 10.8467L7.1912 11.3911C7.02704 11.5552 6.75195 11.5552 6.58779 11.3911L3.15315 7.95644C2.98899 7.79229 2.98704 7.51922 3.15315 7.35304L3.69753 6.80866C3.8637 6.64255 4.13475 6.64255 4.30093 6.80866Z" fill="#149D52"/>
</g>
</g>
</g>
<defs>
<clipPath id="clip0_12_5705">
<rect width="16" height="16" fill="white"/>
</clipPath>
</defs>
</svg>
