<svg width="14" height="15" viewBox="0 0 14 15" fill="none" xmlns="http://www.w3.org/2000/svg">
<g id="SVG" clip-path="url(#clip0_12_4169)">
<path id="Vector" d="M13.6111 0.359985H5.05557C4.84061 0.359985 4.66667 0.533928 4.66667 0.748886C4.66667 0.963844 4.84061 1.13779 5.05557 1.13779H12.6723L0.113941 13.6962C-0.0379804 13.8481 -0.0379804 14.0942 0.113941 14.2461C0.189884 14.322 0.289415 14.36 0.38891 14.36C0.488405 14.36 0.5879 14.322 0.663879 14.2461L13.2222 1.68769V9.30446C13.2222 9.51942 13.3961 9.69336 13.6111 9.69336C13.8261 9.69336 14 9.51942 14 9.30446V0.748886C14 0.533928 13.826 0.359985 13.6111 0.359985Z" fill="#050B20"/>
</g>
<defs>
<clipPath id="clip0_12_4169">
<rect width="14" height="14" fill="white" transform="translate(0 0.359985)"/>
</clipPath>
</defs>
</svg>
