<svg width="24" height="24" viewBox="0 0 24 24" fill="none" xmlns="http://www.w3.org/2000/svg">
<g id="badminton 1" clip-path="url(#clip0_12_4098)">
<path id="Vector" d="M12.7441 15.7656L15.7394 18.7606L23.9996 15.3318L23.4778 10.2874L20.8484 9.84668L12.7441 15.7656Z" fill="white"/>
<path id="Vector_2" d="M10.586 15.5987L8.36365 13.3763L5.66211 17.0754L6.8869 18.3002L10.586 15.5987Z" fill="white"/>
<path id="Vector_3" d="M11.5936 16.6062L7.89453 19.3077L9.80945 21.2228L14.3325 19.3451L11.5936 16.6062Z" fill="white"/>
<path id="Vector_4" d="M4.65509 9.66736L2.77734 14.1904L4.65509 16.068L7.35663 12.3689L4.65509 9.66736Z" fill="white"/>
<path id="Vector_5" d="M9.2041 12.2257L11.7366 14.7582L19.1345 9.35535L18.5945 5.40466L14.5858 4.85681L9.2041 12.2257Z" fill="white"/>
<path id="Vector_6" d="M1.96472 15.3684L1.38062 15.9525C0.490173 16.843 -0.000183054 18.0267 5.12619e-08 19.2859C0.000183157 20.5452 0.49054 21.7289 1.38116 22.6194C2.29999 23.538 3.50684 23.9974 4.71387 23.9973C5.9209 23.9973 7.1283 23.5378 8.04712 22.619L8.63104 22.0349L1.96472 15.3684Z" fill="white"/>
<path id="Vector_7" d="M8.19617 11.2183L14.1401 3.07977L13.7115 0.521606L8.6673 0.00012207L5.23828 8.26038L8.19617 11.2183Z" fill="white"/>
</g>
<defs>
<clipPath id="clip0_12_4098">
<rect width="24" height="24" fill="white"/>
</clipPath>
</defs>
</svg>
