<svg width="24" height="24" viewBox="0 0 24 24" fill="none" xmlns="http://www.w3.org/2000/svg">
<g id="cricket-bat 1" clip-path="url(#clip0_12_4065)">
<path id="Vector" d="M19.2871 3.58194L20.1073 2.76172L21.2891 3.94348L20.4689 4.7637L19.2871 3.58194Z" fill="white"/>
<path id="Vector_2" d="M20.6426 2.22647L21.4628 1.40625L22.6446 2.5878L21.8241 3.40823L20.6426 2.22647Z" fill="white"/>
<path id="Vector_3" d="M21.998 0.871004L22.8183 0.0507812L24 1.23233L23.1798 2.05277L21.998 0.871004Z" fill="white"/>
<path id="Vector_4" d="M16.7349 8.40089L15.6494 7.31543L13.0498 11.0005L16.7349 8.40089Z" fill="white"/>
<path id="Vector_5" d="M17.9316 4.93741L18.7521 4.11719L19.9336 5.29895L19.1134 6.11917L17.9316 4.93741Z" fill="white"/>
<path id="Vector_6" d="M2.1667 23.6005C2.76793 24.2005 3.74126 24.2005 4.34249 23.6005L18.1384 9.80479L17.2781 8.94423L11.6958 12.8821C11.5454 12.9883 11.3404 12.9708 11.2101 12.8405C11.0798 12.7102 11.0622 12.5051 11.1685 12.3546L15.1063 6.77246L14.2458 5.91211L0.449813 19.7081C-0.149938 20.3093 -0.149938 21.2824 0.449813 21.8836L2.1667 23.6005Z" fill="white"/>
<path id="Vector_7" d="M16.5762 6.29288L17.3964 5.47266L18.5782 6.65442L17.7579 7.47464L16.5762 6.29288Z" fill="white"/>
</g>
<defs>
<clipPath id="clip0_12_4065">
<rect width="24" height="24" fill="white"/>
</clipPath>
</defs>
</svg>
