<svg width="64" height="64" viewBox="0 0 64 64" fill="none" xmlns="http://www.w3.org/2000/svg">
<g id="device 1">
<rect id="Rectangle 4" x="15" y="3" width="34" height="58" fill="white"/>
<path id="Vector" d="M46.1872 1.33301H17.8132C15.4722 1.33301 13.5732 3.37201 13.5732 5.88701V58.112C13.5732 60.627 15.4712 62.666 17.8132 62.666H46.1872C48.5282 62.666 50.4272 60.627 50.4272 58.112V48.379V12.135V5.88701C50.4262 3.37201 48.5282 1.33301 46.1872 1.33301ZM25.9012 4.11301H38.0982C38.3392 4.11301 38.5342 4.41201 38.5342 4.78201C38.5342 5.15101 38.3392 5.45101 38.0982 5.45101H25.9012C25.6602 5.45101 25.4652 5.15101 25.4652 4.78201C25.4662 4.41301 25.6612 4.11301 25.9012 4.11301ZM36.9362 59.736H27.0652C26.1822 59.736 25.4662 59.02 25.4662 58.137C25.4662 57.254 26.1822 56.538 27.0652 56.538H36.9362C37.8192 56.538 38.5352 57.254 38.5352 58.137C38.5342 59.021 37.8192 59.736 36.9362 59.736ZM46.8592 53.603H17.1412V8.21901H46.8592V53.603Z" fill="#149D52"/>
</g>
</svg>
