<svg width="25" height="25" viewBox="0 0 25 25" fill="none" xmlns="http://www.w3.org/2000/svg">
<g id="search">
<path id="Vector" d="M15.7057 5.6562C12.9307 2.8812 8.41191 2.8812 5.63691 5.6562C2.86191 8.4312 2.86191 12.95 5.63691 15.725C7.02441 17.1125 8.84316 17.8062 10.6807 17.8062C12.5182 17.8062 14.3369 17.1125 15.7244 15.725C18.4807 12.95 18.4807 8.4312 15.7057 5.6562ZM14.9182 14.9375C12.5744 17.2812 8.76816 17.2812 6.42441 14.9375C4.08066 12.5937 4.08066 8.78745 6.42441 6.4437C7.58691 5.2812 9.12441 4.6812 10.6619 4.6812C12.1994 4.6812 13.7369 5.26245 14.8994 6.4437C17.2432 8.78745 17.2432 12.5937 14.9182 14.9375Z" fill="white"/>
<path id="Vector_2" d="M20.4869 22.1937C20.9182 22.1937 21.3494 22.025 21.6869 21.7062C22.3432 21.05 22.3432 19.9812 21.6869 19.325L19.2869 16.925C18.9682 16.6062 18.5369 16.4375 18.0869 16.4375C17.8244 16.4375 17.5807 16.4938 17.3557 16.6063L16.8869 16.1375C16.6619 15.9125 16.3057 15.9125 16.0994 16.1375C15.8744 16.3625 15.8744 16.7187 16.0994 16.925L16.5682 17.3937C16.4557 17.6187 16.3994 17.8625 16.3994 18.125C16.3994 18.575 16.5682 19.0062 16.8869 19.325L19.2869 21.6875C19.6244 22.025 20.0557 22.1937 20.4869 22.1937ZM17.5244 18.1062C17.5244 17.9562 17.5807 17.8063 17.6932 17.7125C17.8057 17.6 17.9369 17.5437 18.0869 17.5437C18.2369 17.5437 18.3869 17.6 18.4807 17.7125L20.8619 20.0937C21.0869 20.3187 21.0869 20.675 20.8619 20.8812C20.6369 21.1062 20.2807 21.1062 20.0744 20.8812L17.6932 18.5187C17.5807 18.4062 17.5244 18.2562 17.5244 18.1062Z" fill="white"/>
<path id="Vector_3" d="M10.662 5.80627C9.3682 5.80627 8.14945 6.31252 7.2307 7.25002C6.34945 8.13127 5.86195 9.27503 5.8057 10.5125C5.78695 10.8313 6.0307 11.075 6.34945 11.0938H6.3682C6.6682 11.0938 6.91195 10.85 6.9307 10.55C6.9682 9.59377 7.36195 8.71252 8.0182 8.03752C8.7307 7.32502 9.6682 6.93127 10.662 6.93127C10.9807 6.93127 11.2245 6.68752 11.2245 6.36877C11.2245 6.05002 10.9807 5.80627 10.662 5.80627Z" fill="white"/>
<path id="Vector_4" d="M7.41797 14C7.72863 14 7.98047 13.7482 7.98047 13.4375C7.98047 13.1268 7.72863 12.875 7.41797 12.875C7.10731 12.875 6.85547 13.1268 6.85547 13.4375C6.85547 13.7482 7.10731 14 7.41797 14Z" fill="white"/>
</g>
</svg>
