<svg width="15" height="14" viewBox="0 0 15 14" fill="none" xmlns="http://www.w3.org/2000/svg">
<g id="SVG" clip-path="url(#clip0_12_4768)">
<path id="Vector" d="M13.8787 0H5.32315C5.10819 0 4.93425 0.173943 4.93425 0.388901C4.93425 0.603859 5.10819 0.777802 5.32315 0.777802H12.9399L0.381519 13.3362C0.229598 13.4881 0.229598 13.7342 0.381519 13.8861C0.457462 13.962 0.556993 14 0.656488 14C0.755983 14 0.855478 13.962 0.931457 13.8861L13.4898 1.3277V8.94447C13.4898 9.15943 13.6637 9.33337 13.8787 9.33337C14.0937 9.33337 14.2676 9.15943 14.2676 8.94447V0.388901C14.2676 0.173943 14.0936 0 13.8787 0Z" fill="white"/>
</g>
<defs>
<clipPath id="clip0_12_4768">
<rect width="14" height="14" fill="white" transform="translate(0.267578)"/>
</clipPath>
</defs>
</svg>
